<svg id="Layer_1" data-name="Layer 1" xmlns="http://www.w3.org/2000/svg" viewBox="0 0 282.87 165.53"><defs><style>.cls-1{fill:#333;}</style></defs><title>49ers</title><g id="Vb7zel"><path class="cls-1" d="M520.67,593.8c-34.19-.58-67.77-6.54-98.56-24A100.1,100.1,0,0,1,394,546.92c-18.71-22.46-18.55-50.16.57-72.24,15.19-17.54,34.78-28.33,56.51-35,55.66-17.15,110.49-15.62,163.74,9.5A96.8,96.8,0,0,1,648.75,475c20,24.23,18.91,52.8-2.91,75.61-17,17.72-38.32,27.68-61.42,34.5C563.83,591.18,542.74,593.52,520.67,593.8Zm1.34-5.88a176.29,176.29,0,0,0,52.73-7.23c22.73-6.74,43.47-16.95,58.57-36,16-20.23,15.84-45-.07-65.32a88.92,88.92,0,0,0-31.39-25c-44.17-21.59-89.91-23.36-136.49-9.44-20.39,6.09-38.74,16.11-52.76,32.7-18,21.32-18.29,48.2.29,69a108.85,108.85,0,0,0,24.5,20.19C463.29,582.49,492.1,587.73,522,587.92Z" transform="translate(-380.14 -428.27)"/><path class="cls-1" d="M522.9,439.39c29.32,0.34,57.32,6,82.14,22.43a91.93,91.93,0,0,1,18.58,16.47c17,19.74,17,44.55.44,64.78-11.85,14.51-27.4,23.79-44.87,29.6-44.6,14.84-88.43,13.42-130.92-7.8a81,81,0,0,1-27.19-21.61c-17.26-21.42-16.5-46.87,2-67.2,13.89-15.29,31.64-24.09,51-29.93A166.47,166.47,0,0,1,522.9,439.39Zm36,15.24c-9.53-1.09-12.95-.66-20.81,2-1.12.38-2.58,0-3.84-.29-13.17-2.59-26.41-3.45-39.7-1.25-9.41,1.55-18.62,4-26,10.48-10.6,9.34-8.21,21.71,5.09,26.29a51.93,51.93,0,0,0,13.07,3c10.28,0.71,20.61.64,30.91,1.2,6.12,0.33,12.36.59,18.26,2.06,6.31,1.57,8.24,7.51,4,12.38-2.77,3.15-7,6.13-11.06,6.83-19.65,3.39-38.2.4-53.87-12.91-3.73-3.17-7-3.55-11.31-2.46V529.4c8.27,2.73,12.39-1.35,14-7.92,10,1.73,19.21,3.89,28.57,4.84,15.37,1.57,30.31-.69,43.78-8.67,15.76-9.35,15.54-27.58-.67-36.14-5.84-3.08-12.87-4.52-19.52-5.3-9.56-1.13-19.28-.74-28.9-1.47-3.92-.3-8.88-0.27-9.92-5.61-0.67-3.45,4.34-6.63,10.47-7.22a66.48,66.48,0,0,1,40.8,8.64c5.58,3.26,11,2.23,16.69,2.35V454.63Zm-43.8,76.62c0,6.36,0,11.49,0,16.61,0,8.22-1.75,10.77-9.82,13.2-4.24,1.27-8.67,1.94-13,2.88v5.13h61.47c1.13-3.75.81-6-3.68-6.18a19.2,19.2,0,0,1-6.19-1.77c-3.84-1.52-7.43-3.69-7.89-8.18s-0.1-8.9-.1-13.84c6,0,11.66.26,17.26-.06,8.08-.46,13.58,3.31,16.6,10.31,1.91,4.43,4.56,4.36,8.19,3.45V518.16h-6c-1.72,6.57-5.88,11-12.41,12.36a72.71,72.71,0,0,1-14.35,1.11C535.31,531.68,525.46,531.4,515.07,531.25Zm93.63-29.93H567.11l-1.92,8.53H582c15.33,0,17.11,1.49,19.86,16.61a1.93,1.93,0,0,0,.48.69h6.32V501.32Zm-108.75,7.41c1,0.11,1.64.24,2.27,0.24,4.91,0,10.23-1,12.6,5.28,0.22,0.6,1.78,1.14,2.6,1,5.46-.92,11-1.58,16.24-3.31,1.86-.62,4.08-4.16,3.8-6s-3.58-4.17-5.63-4.25c-10.56-.43-21.14-0.2-31.89-0.2v7.26Z" transform="translate(-380.14 -428.27)"/></g></svg>