<svg id="Layer_1" data-name="Layer 1" xmlns="http://www.w3.org/2000/svg" viewBox="0 0 253.6 168.45"><defs><style>.cls-1{fill:#333;}</style></defs><title>bears</title><g id="oRh8SA"><path class="cls-1" d="M739.62,386.13c-2.94,20.78-13,36.37-28.43,48.59-21.16,16.76-45.82,24.39-72.34,26.86s-52.13-1.14-76.44-12.25c-19.38-8.86-35.37-21.9-46.16-40.52C509.11,396.5,500,386.53,486,381.26c14.88-6.26,24.4-16.59,30.47-30.78,10-23.3,28.38-38.11,51.61-46.32,47.69-16.85,93.86-13.44,137.33,13.55,12.3,7.64,21.94,18.14,29.19,31.8H713.28c-4.66,0-9.34-.22-14,0-12.07.68-22.61-1.82-33.87-7.69-28.9-15.07-59-14.52-88,.94-14.26,7.61-23.3,19.57-24.1,36.58-0.35,7.34,2.53,13.33,7.16,18.58,12.42,14.1,28.69,21.36,46.66,24.89,23.52,4.61,46,1.92,65.15-13.61,6.85-5.55,11.94-13.27,17.91-19.92,1.12-1.24,2.61-3,3.95-3.06C709.07,386.05,724,386.13,739.62,386.13Zm-4.47,3.5c-12.53,0-24.66.1-36.8-.07-3.08,0-4.5,1.32-6.36,3.58-5.47,6.65-10.74,13.78-17.41,19.07-20.91,16.61-45.05,19.43-70.43,13.84-18-4-34.35-11.54-46.75-25.86-5.79-6.69-8.87-14.37-7.82-23.41,1.64-14.05,8.51-25,19.78-33.31,28.48-21,76.35-21,107-.15a11.48,11.48,0,0,0,5.79,2.24c14.32,0.19,28.65.1,43,.07a14.63,14.63,0,0,0,2.57-.54,77.58,77.58,0,0,0-24.55-24.44c-42-25.91-86.49-29.36-132.61-13.46-21.27,7.33-39,20.21-48.74,41-6.22,13.29-13.64,24.89-26,32.61,4.54,3.87,9.23,7.14,13,11.26a88.31,88.31,0,0,1,10.18,14.13c10.9,18.19,26.3,31.26,45.44,39.86,30.36,13.62,62,15.72,94.22,8.65,23-5,43.88-14.51,60.13-32.25C727.15,413.29,733,402.65,735.15,389.63Z" transform="translate(-486.02 -293.87)"/><path class="cls-1" d="M505.95,380.83c8.75-6.69,13.62-16,18.46-25.54,13.49-26.7,35.93-42.44,64.65-48.81,41.47-9.21,80.2-2.34,115.23,22.35,4.17,2.94,7.74,6.72,12.51,10.92-2.45.27-3.63,0.49-4.82,0.5-4,0-8-.19-12,0.06-10.91.67-20.34-2.14-30.58-6.89-37.1-17.2-73.6-14.84-107.38,9.44-11,7.9-16.95,19.48-18.66,33-1.48,11.71,2.73,21.59,10.58,30,13.68,14.73,31.18,22.37,50.44,26.29,23.21,4.72,45.62,2.72,66.56-9.29a71.9,71.9,0,0,0,25.26-24.39c1.7-2.7,3.41-3.9,6.72-3.79,8,0.28,15.93.09,24.89,0.09-1.2,3.46-1.92,6.31-3.14,8.92C718.38,417,708,426.62,695.3,433.41c-43.14,23.1-87.44,27-132.44,5.73-17.48-8.26-30.44-21.83-39.69-38.85C517.76,390.32,515.31,387.51,505.95,380.83Z" transform="translate(-486.02 -293.87)"/></g></svg>