<svg id="Layer_1" data-name="Layer 1" xmlns="http://www.w3.org/2000/svg" viewBox="0 0 262.41 190.44"><defs><style>.cls-1{fill:#333;}</style></defs><title>bengals</title><g id="_2mN8wv" data-name="2mN8wv"><path class="cls-1" d="M923.38,649.51v4a13.51,13.51,0,0,0-.69,2.31c-2,17.35-10.93,30.86-23.9,41.86-8.77,7.43-18.41,12.49-30.66,12.47-60.48-.1-121,0.21-181.44.51-3.16,0-4.74-.87-6-3.76-6.07-14.21-12.36-28.33-18.51-42.52a34.08,34.08,0,0,1-1.25-5.19h22.91V569.1c-6,0-11.8.11-17.6,0-3.5-.09-5.06-1.19-2.42-4.87q14.22-19.9,28.05-40.09c2-2.85,4.14-3.73,7.45-3.73,55.48,0,111-.28,166.44-0.07a41.59,41.59,0,0,1,17.63,4.25c16.85,8.32,28.41,21.78,34.56,39.57,7,20.3-.2,37.48-19.44,47.12-2.51,1.26-5.12,2.3-8.42,3.78C907.9,620.75,920.7,630.39,923.38,649.51Zm-256.49,14c0.64,1.79,1,3,1.52,4.24,5.06,11.58,10.26,23.09,15.13,34.74,1.33,3.17,3.11,4,6.37,3.93,28.32-.24,56.63-0.28,85-0.4,1.43,0,2.85-.21,4.82-0.36-13.07-28.67-19.05-58.55-21-89.23a336.82,336.82,0,0,1,6.78-91.9h-5.28c-11.49,0-23,.22-34.48-0.08-4-.1-5.81,1.19-7.33,4.82-21.18,50.64-15.48,98.76,13.23,144.8,3.13,5,6.47,9.91,9.71,14.86l-1.1,1c-21.85-13.75-38.6-32.43-51.5-55-0.4,8.12-.48,16.07-0.36,24,0,3.4-1.24,4.81-4.72,4.68C678.31,663.4,673,663.54,666.89,663.54ZM813.7,569.23a24.4,24.4,0,0,1,3.74,1.1c5.15,2.71,9.6,14,8.08,20.28-1.58,6.51-8.28,12-15.19,11.82-3.65-.1-4.91,1.15-5.34,4.64-0.92,7.37-2.24,14.68-3.51,22.67,3.78,0,7,.37,10-0.08,6.28-.93,9.64,2.41,12,7.47a36.38,36.38,0,0,1,2.28,6,15.54,15.54,0,0,1-14.61,19.22c-3.61.05-7.22,0-12.37,0,1.93,14.31,3.63,27.62,5.68,40.88,0.16,1.05,2.8,2.45,4.29,2.46q31.24,0.14,62.48-.16a20.81,20.81,0,0,0,8.24-1.56c17.69-8.06,30.17-21.14,36.37-39.66,5.63-16.84.5-30.19-14.27-38.9-9.38-5.54-19.79-7.61-30.41-8.74a5.93,5.93,0,0,0-4.42,2.24c-11.92,16.06-21.07,33.49-25.33,53.19-1.33,6.16-2.23,12.41-3.32,18.61l-1.68-.18c-6.16-28.91-3.12-57.66,3.22-86.16,6.42-28.83,18.69-54.91,40.44-77.64-5.43-.9-9.59-2.08-13.77-2.19-10.66-.29-21.33,0-32-0.16-2.86,0-4.51.62-5.55,3.54C823.94,541.6,818.88,555.14,813.7,569.23Zm-31.83,29c10.16,0,19.63.07,29.09,0,5.67-.06,11.29-5.85,11.15-11.22-0.19-7.57-4.66-12.63-11.2-12.67s-13-.06-19.46-0.08h-9.58v24Zm0.52,35.91v23.94c9.76,0,19-.17,28.29.06,5.31,0.13,8.38-2.83,10.66-6.85,3-5.24-1.36-16.92-6.39-17.06C804.18,634,793.38,634.18,782.4,634.18Zm88.94-21.06c24.89,1.16,48.09-19,43.24-37.49A167.2,167.2,0,0,0,871.33,613.11Z" transform="translate(-660.97 -520.22)"/></g></svg>