<svg id="Layer_1" data-name="Layer 1" xmlns="http://www.w3.org/2000/svg" viewBox="0 0 144.12 91.02"><defs><style>.cls-1{fill:#333;}</style></defs><title>bills</title><g id="qDeHgc"><path class="cls-1" d="M898.42,495.3l4.35,5.21,1.23-.63c-0.21-6.55,0-13,6.5-17.13l-0.78-1.16-96.94,7.9-0.36-1a23.7,23.7,0,0,1,3.14-2.72c9.89-6,19.6-12.31,29.83-17.66,6.7-3.5,14.14-5.61,21.3-8.21a79.27,79.27,0,0,1,10-3c9.61-2.1,16.5,2.28,22.38,9.41a9.84,9.84,0,0,0,5.86,3.3c10.28,1.15,11.85,3.88,11.27,14.43-0.54,9.68-6.11,17-10.7,24.26-3.32,5.29-10.52,8.15-16.4,12.4,0.2-1.57.35-2.78,0.51-4,0.44-3.17-1-4.79-4.14-4.71a41.92,41.92,0,0,0-8,.52,6.19,6.19,0,0,0-4,2.85c-2,4.72-5.64,6.79-10.43,7.37-6.2.76-12.4,1.49-18.86,2.27,0.68-7,8-7.43,12.75-12-6.11,0-11.17-.09-16.24,0s-10.22.58-15.33,0.66c-13.9.21-25.07,5.82-33.67,16.68a19.63,19.63,0,0,1-2.21,2.7c-2.37,2.08-5.28,3.71-7.15,6.15-1.74,2.28-2.41,5.37-3.56,8.15-4.23-3-4.7-6.77-1.37-10.64q11.21-13,22.53-26a5.29,5.29,0,0,1,3-1.37q47.4-7.11,94.82-14.11A0.87,0.87,0,0,1,898.42,495.3Z" transform="translate(-772.22 -456.33)"/><path class="cls-1" d="M898.81,484.62l-1.56,8.22-125,18.61c3-5.48,5.28-10.13,8.16-14.33,1-1.44,3.52-2.35,5.43-2.53C815,492,844.13,489.5,873.29,487,881.7,486.25,890.11,485.42,898.81,484.62Z" transform="translate(-772.22 -456.33)"/><path class="cls-1" d="M794.14,546.25c-3.86-2.9-4.46-5.24-2.39-8.64,6.59-10.82,14.58-19.49,28.85-20.42C811.82,527.26,797.56,531.57,794.14,546.25Z" transform="translate(-772.22 -456.33)"/><path class="cls-1" d="M856.22,531.3c-0.55-3.62.8-5.75,4.6-5.88,6.85-.25,13-1.52,15.26-9.32a2.64,2.64,0,0,1,2.33-1.08,3.09,3.09,0,0,1,1.65,2c1.45,4.82-.54,9.06-5.37,10.77a62.05,62.05,0,0,1-9.2,2.1C862.6,530.42,859.67,530.78,856.22,531.3Z" transform="translate(-772.22 -456.33)"/></g></svg>