<svg id="Layer_1" data-name="Layer 1" xmlns="http://www.w3.org/2000/svg" viewBox="0 0 225 144.75"><defs><style>.cls-1{fill:#333;}</style></defs><title>broncos</title><g id="UlMYRx"><path class="cls-1" d="M1041.88,292a80.73,80.73,0,0,0,5.9,6.72c4,3.68,8.56,4.75,13.81,2.59a59.29,59.29,0,0,1,7.52-2c-5.7-16.56-3-30.32,7.83-38.43-0.31,9.07-2.52,18.5,4.67,25.61,2.3,2.28,6.25,2.9,9.85,3.71-5.94-7.83-6.84-16-3.83-25.41,2.23,2.4,4.07,4.6,6.14,6.56,4.33,4.1,9,5.51,15,3,10.95-4.54,22.17-8.28,34.36-5.88,17.52,3.44,29.07,14.71,37.68,29.42,2.3,3.93,4.76,6,9.24,7a35.89,35.89,0,0,1,22.68,14.25,14.28,14.28,0,0,0,4.16,3.44c5.38,3.3,10.94,6.33,16.22,9.79,1.17,0.77,5.68.74,2.42,4.43a15.68,15.68,0,0,0,2.56,2.75c9.12,7.73,18.27,15.42,27.64,23.32-1.46,4.31-5.11,9.2,1.16,13.2v1l-7.37,13c-3.55-4.16-6.83-8.55-10.72-12.31-2-2-5.05-3.18-7.84-4.07-1.41-.45-3.29.59-5,1,0.85,1.43,1.37,3.53,2.62,4.16,4,2,8.21,3.42,12.4,5.09-6.9,10.11-16.2,5.8-25.12,3.88a16.63,16.63,0,0,0-19.21-15.82c-8.87,1.24-17.17-.27-24.65-5.69a7.67,7.67,0,0,0-5.71-1.09c-15.7,4.16-25.25,14-27.36,30.47-0.43,3.33-1.25,6.62-1.9,9.92l-1.58.12a13.27,13.27,0,0,1-1.55-3.1c-0.93-4.56-1.59-9.17-2.54-13.73-3.75-18-15.18-29.62-31.54-36.6-10.53-4.49-21.44-8.05-32.16-12.11-15.31-5.8-27.06-15.47-33.16-31.08-1.13-2.89-1.79-6-2.66-9Q1041.88,296,1041.88,292Zm216.86,70.57c-5.88-5-12.65-11.81-20.38-17.21-6.8-4.75-10.25-12.88-18.17-16.32a33.11,33.11,0,0,1-13.48-10.59c-4.79-6.32-12-8.83-20-10.38l6.29,5.87c-45.5-16-88.23-9.79-131,12,3.63,2.51,6,4.62,8.77,6,5.82,2.82,11.77,5.44,17.84,7.66A9.09,9.09,0,0,0,1095,339c17.95-8.69,36.71-12.53,56.63-10.29a47.8,47.8,0,0,0,5,0l-3.35-7.46,0.81-1.12c9.33,4.92,18.71,9.77,27.95,14.87,1.07,0.59,1.87,2.63,1.89,4,0.22,16.28,13,25.15,28.24,19.6a5.05,5.05,0,0,1,3.92.15,74.88,74.88,0,0,1,6.78,5.55c-2.05.05-3.54-1-5.18-1.38-1.91-.45-4.18-1-5.91-0.34-16.38,5.75-32.47-3.77-34.67-21-0.37-2.93-1.5-3.87-3.93-4.64a63.74,63.74,0,0,0-38.31-.17c-8.11,2.43-15.73,5.78-22.43,10.92l20.4,13.48c8-6.41,17.32-9.87,28.06-8.85-7.82,2.74-15.13,6.19-20.28,13-0.92,1.22-2.08,3.23-1.67,4.32,2.23,5.87,4.92,11.57,7.55,17.53,4.73-15.91,16.57-23.29,31.41-27,1.57-.39,3.91.45,5.29,1.51,7.83,6,16.44,7.58,25.91,5.29,1.4-.34,3.2-1,4.25-0.47,6.86,3.56,13.87,7.52,16.12,15.43,1.53,5.39,5.76,3.4,8.74,4.54,1.57,0.6,3.81-.53,6.9-1.09-4.46-2.26-7.83-3.28-10.19-5.42-1.61-1.46-2.81-4.77-2.28-6.73,0.43-1.58,4-3.64,5.7-3.29a34.12,34.12,0,0,1,11.71,4.79c3.33,2.21,5.83,5.67,9.51,9.41,0.77-3.09,1.89-5.25,1.71-7.3C1260.9,372.69,1259.84,368.51,1258.73,362.57Z" transform="translate(-1041.88 -260.83)"/><path class="cls-1" d="M1237.09,351.1c-4.4-3.17-8.41-7.9-13.3-9.13-6.47-1.63-8.36-7.18-12.55-10.65C1221.48,335.71,1229.8,342.76,1237.09,351.1Z" transform="translate(-1041.88 -260.83)"/></g></svg>