<svg id="Layer_1" data-name="Layer 1" xmlns="http://www.w3.org/2000/svg" viewBox="0 0 215.65 165.48"><defs><style>.cls-1{fill:#333;}</style></defs><title>browns</title><g id="hQ4yjA"><path class="cls-1" d="M860.39,263v3.69c-7.17-.74-4-8.66-8.91-11.92l5.25,16.63-6.5-.75-3.11,5-1.78-.66c3-3.07,6-5.86-.25-8.31-1.34-.52-1.51-4.13-2.16-6.34-0.56-1.9-1-3.83-1.62-6.06l-5.12.85L837.49,268c-7.53,2-14.91,3.76-22.18,5.9-9.6,2.83-17.25,8.3-22.34,17.17-3.51,6.12-7.22,12.13-11.08,18-2.15,3.28-5.07,6.07-7.14,9.39-3.75,6-7.17,12.27-10.65,18.47-2.11,3.76-.55,5.54,4.27,6.22,14.74,2.1,29.43,4.47,44.8,6.84l-2.56,11.81,24.89-4.08c-6.28,4.93-12.24,5.9-18.42,5.62-5.21-.24-9,1-13,5.06-8.63,8.58-20.11,9.63-31.7,8.21a62.75,62.75,0,0,1-26.83-10.13c-1.41-.92-3.57-0.69-5.38-1l-1.86-4c-0.84,4.06-10.12,7.56-17.28,6.57l0.95-4.87c-7.4-2-8.63-9.59-14.13-15.32l3.14,10.35a80.69,80.69,0,0,1-3.57-7.83c-1.31-3.86-1.8-8-3.39-11.76-10.2-23.72-14.16-48.06-5.07-72.82C710.33,234.81,734.44,218.8,766,213a82.92,82.92,0,0,1,46,4.89,22.32,22.32,0,0,1,3.24,1.95,52.49,52.49,0,0,1-5.14-1.35c-13.59-5-27.47-6.79-41.78-3.94,4.14,0.21,8.29.11,12.44,0.23,25.9,0.73,45.59,12.85,60.42,33.45,2.25,3.13,4.38,4.41,8.4,3.31-0.88-1.48-1.6-2.93-2.53-4.23A81.88,81.88,0,0,0,819,222.46a34.15,34.15,0,0,1-3.8-2.74c12.87,4.64,22.59,13.39,31,23.88q6.14,7.7,12.26,15.42ZM791.9,350.12c-2.18-1.45-3.51-3-4.72-3s-3.5,2-3.37,2.79c0.29,1.76,1.8,3.31,2.81,4.94Zm53.92-94.93c1.38,3.37,2.72,6.77,4.26,10.06,0.08,0.17,2.51-.2,2.8-0.81C853.65,262.76,849.3,255.72,845.81,255.19Z" transform="translate(-693.84 -211.71)"/><path class="cls-1" d="M802.63,317.39c3.94,5.19,9.79,7,15.7,7.41,19.42,1.41,38.63-1.46,57.47-5.46,5.73-1.22,6.74.29,8.4,4.15a116.66,116.66,0,0,1,9.42,42.6c0.14,4.25-.95,6.08-5.72,7.11-10.84,2.34-21.45,2.71-32.08-.32s-18.71-9.11-21.91-21.08c1.52,0.84,3.79,1.3,4.45,2.58,8.42,16.18,31.78,19.34,48,14.48,0.91-.27,2.15-1.88,2-2.66-0.33-1.92-.91-4.18-2.21-5.47-4.18-4.12-8.74-7.86-12.66-12.39,7.33-2.67,8.09,6.32,13.72,6.84l-1.56-11.36c-6.68,1.15-13.07,2.07-19.37,3.38a152.29,152.29,0,0,1-63.88-.34c-10.22-2.2-20.62-3.54-31.12-5.3,0.46-4.73,3.76-3.84,6.55-3.37,10.81,1.83,21.7,3.38,32.38,5.81,18.2,4.14,36.08,1.25,54-1.48,6.56-1,13.09-2.13,20.23-3.3l-5.1-16.06c-9.83,1.43-19.45,3.22-29.16,4.13-10.75,1-21.6,1.88-32.35,1.43-5.11-.21-10.74-2.75-15-5.83-5.86-4.26-10.7-10-15.76-15.24-0.83-.87-0.57-2.77-0.81-4.2,1.23,0.45,2.77.59,3.65,1.42,4.34,4.1,8.5,8.39,12.73,12.61Z" transform="translate(-693.84 -211.71)"/><path class="cls-1" d="M811.74,294.18l-2.85-9c8.55-5.08,18.08-7.57,27.89-9.21l0.72,1.46-6.33,3.74,21.57,2.72c0.4,2.51.35,5,1.22,7.21,3.75,9.39,7.76,18.67,11.76,28.19-2.92,1.55-4.33.78-5.43-1.95-3.18-7.85-6.56-15.62-9.87-23.42-0.63-1.48-1.31-2.93-2-4.52a5.6,5.6,0,0,0-.8.66c-6.42,10.2-5.38,13.9,5.72,21.58a73.87,73.87,0,0,1,6.62,5.8l-1.07,1.41c-2.8-1.52-5.71-2.88-8.38-4.62s-5-3.78-8.41-6.46l2,15.75c-1.42-1.11-2.41-1.52-2.78-2.25-0.83-1.61-1.3-3.41-2-5.08-1.6-3.68-3.92-6.65-8.26-7.09s-7.17,2-9.12,5.94l-3.5-6Zm30.78-2.81c-4,3.54-5.61,12.12-3,16.28Z" transform="translate(-693.84 -211.71)"/><path class="cls-1" d="M808.73,330.32l-0.36-2,13.84,3.19c-3,3.77-5.66,7.16-8.44,10.45a2.73,2.73,0,0,1-2.18.65c-6.48-1.09-12.93-2.28-18.43-3.28,1.33-4.2,4.59-9,3.44-12.23-1.33-3.74-6.54-6.09-10.65-9.52l2.92-5.07Z" transform="translate(-693.84 -211.71)"/><path class="cls-1" d="M811.74,294.18L818.38,309,824,323.66,823,324.76c-1.57-1.39-3.77-2.47-4.61-4.21q-7.91-16.32-15.22-32.93c-0.79-1.79-.48-4.07-0.68-6.12l1.75-.28Z" transform="translate(-693.84 -211.71)"/><path class="cls-1" d="M806.44,282.77c0.5-1.44.7-3.93,1.53-4.16,12.43-3.45,24.95-6.62,37.45-9.78,0.52-.13,1.2.36,3,1-1.82,1.13-2.74,2-3.83,2.34-9.59,2.67-19.24,5.14-28.82,7.87A65.28,65.28,0,0,0,808,283.3Z" transform="translate(-693.84 -211.71)"/><path class="cls-1" d="M802.69,317.5c-2.37-2.89-4.58-5.95-7.17-8.63-1.93-2-2.32-3.49-.69-6,2.52-3.83,4.53-8,6.75-12l-0.18.18c1.49,2.32,4.24,4.64,4.22,6.95-0.05,6.1-1.28,12.2-2.1,18.29a3.23,3.23,0,0,1-.9,1.08Z" transform="translate(-693.84 -211.71)"/><path class="cls-1" d="M817.65,322.62c-8,.68-12.23-2.67-12.33-9.81-0.06-4.34.32-8.69,0.51-13l1.41-.14Z" transform="translate(-693.84 -211.71)"/><path class="cls-1" d="M860.39,263l-2-4-0.06-5.82c1.51,1.43,3.34,2.66,4.46,4.35a100.37,100.37,0,0,1,5.64,10c2.45,4.81,1,6.9-4.27,7.61-2.33.31-4.47,2-7.85,3.7l4.57-6.81-4.1-2.41,1-2.23,9.71,2.87a8.34,8.34,0,0,0-1.49-2.31C864.25,266.16,862.28,264.63,860.39,263Z" transform="translate(-693.84 -211.71)"/><path class="cls-1" d="M842.32,343.76l1.13-12.52c6.48,1.29,12.63,2.32,18.66,3.81,2.26,0.56,4.26,2.17,6.37,3.3L867.74,340l-21.12-3.34-2.52,7.63Z" transform="translate(-693.84 -211.71)"/><path class="cls-1" d="M801.59,290.88l-10,13.69-3.38-3.07,12.23-18.65c0.43,3.65.71,5.93,1,8.21Z" transform="translate(-693.84 -211.71)"/><path class="cls-1" d="M903.82,365.83l2.89-2c2.29,3.94-1.75,6.51-11.24,7.16-0.4-3.2-.4-3.2,5.3-6.8-3.39.46-6.63,1.19-5.57-3.39C902.89,361.74,903.79,362.25,903.82,365.83Z" transform="translate(-693.84 -211.71)"/><path class="cls-1" d="M780.7,332.2c-1.65-.65-3.59-1-4.88-2s-3.48-3.49-3.12-4.62c0.79-2.49,1.56-6,5.69-5.5l7.93,6.24C779.34,325.76,778.24,326.91,780.7,332.2Z" transform="translate(-693.84 -211.71)"/><path class="cls-1" d="M904.85,336.84a40.08,40.08,0,0,1,1.81,5.75c1.05,6.52,1.9,13.07,2.83,19.61l-1.14.7c-1-1.36-2.53-2.59-2.88-4.09a65.14,65.14,0,0,1-1.87-12.25c-0.12-3.22.8-6.48,1.25-9.73h0Z" transform="translate(-693.84 -211.71)"/><path class="cls-1" d="M904.85,336.83c-0.15-.63-0.09-1.6-0.47-1.83-7.5-4.48-8.07-11.17-5.94-20,3.64,7.59,6.69,14.17,6.41,21.81h0Z" transform="translate(-693.84 -211.71)"/><path class="cls-1" d="M833,344.47c-7.75-.79-6.62-8.41-9.53-13C831.49,331.91,829.78,340.06,833,344.47Z" transform="translate(-693.84 -211.71)"/><path class="cls-1" d="M898.88,335.3L891,337l-0.2-1.32c3.27-.44,6.54-1.07,9.82-1.2,0.93,0,2.68,1.38,2.69,2.15a4.38,4.38,0,0,1-1.87,3.46,23.48,23.48,0,0,1-7.12,1.83c-0.88.1-1.91-1.14-2.86-1.77,0.68-.73,1.22-1.76,2.06-2.13a50.56,50.56,0,0,1,5.53-1.77Z" transform="translate(-693.84 -211.71)"/><path class="cls-1" d="M771.31,328.83l3.6,2.62a97.67,97.67,0,0,1-5.44,8.33c-0.69.87-2.47,0.88-3.75,1.28,0-1.28-.48-2.81.06-3.78C767.35,334.42,769.34,331.78,771.31,328.83Z" transform="translate(-693.84 -211.71)"/><path class="cls-1" d="M872.7,339.39c-6.48-1-4.93-8.12-8.39-11.65C869,326,869.06,326,872.7,339.39Z" transform="translate(-693.84 -211.71)"/><path class="cls-1" d="M792.38,331l-6-4.75L778.4,320c5.59-.26,10,2.67,14.06,5.82C794,327.07,796.29,329.4,792.38,331Z" transform="translate(-693.84 -211.71)"/><path class="cls-1" d="M784.86,307.55c5.32,5.47-1.11,7.73-1.7,11.82l-4-2.82Z" transform="translate(-693.84 -211.71)"/><path class="cls-1" d="M882.91,318.87c4.67-1.07,7.52-1.87,10.43-2.32,0.91-.14,2,0.63,2.94,1-0.75.86-1.34,2.17-2.28,2.5a28.4,28.4,0,0,1-7.2,1.58C885.9,321.69,884.91,320.35,882.91,318.87Z" transform="translate(-693.84 -211.71)"/><path class="cls-1" d="M783.84,337.94l-9.81-1.5c0.87-1.36,1.8-3.21,2-3.12,2.79,1,5.48,2.23,8.2,3.41Z" transform="translate(-693.84 -211.71)"/><path class="cls-1" d="M786.17,331c2.58-1.83,3.86-.35,4.84,1.9C788.1,335.58,786.72,334.34,786.17,331Z" transform="translate(-693.84 -211.71)"/></g></svg>