<svg id="Layer_1" data-name="Layer 1" xmlns="http://www.w3.org/2000/svg" viewBox="0 0 208 241.03"><defs><style>.cls-1{fill:#333;}</style></defs><title>bucs</title><g id="eYFCVX"><path class="cls-1" d="M834.38,136.51c2.5-12.46,10.53-21.1,19.76-29a42.09,42.09,0,0,0,7.5-7.93c3.92-5.74,1.37-12.46-5.41-14-5.65-1.25-11.5-1.55-17.63-2.31l32.27-19.36-9.34-.56,17.93-13.53-0.81-1.56c-11.48-2.66-21,3.37-32.08,8.78C854.86,46,864.78,39.79,876,35.22c18.63-7.62,37.52-6.16,56.32-1.22,14.6,3.84,28.87,9,43.52,12.55a60,60,0,0,0,21.7,1.33c18.22-2.44,27.51-12.08,31.74-30.94,0.54-2.39,1-4.8,1.46-7.21l1.29-.26c1.42,6,3.24,11.85,4.19,17.88,1.8,11.49,3.86,23,4.28,34.61a128.58,128.58,0,0,0,1.92,16.54v20c-1.47,9.51-2.47,19.12-4.5,28.51-5.83,27-19.68,50.27-35.13,72.71-2.08,3-4.24,6-6.45,8.89a13.26,13.26,0,0,1-17.88,2.54c-2.93-2.18-1.41-4.25,0-6.4,8.16-12.16,16.4-24.26,24.41-36.51,4.72-7.22,9.09-14.67,14.1-22.81-6.61,1.52-12.26,3.15-18,4.07-26.75,4.26-52.63.48-78-8.44-9.83-3.45-19.8-7.2-30-8.7a52.81,52.81,0,0,0-41.29,11c-4.67,3.65-7.75,8.25-7.29,15-6-3.53-6.15-9.67-8-14.9v-7Zm79.83-99.85c-15.17-2.94-29.1-.43-43.7,6.78,2.84,0.14,4.51-.2,5.76.37,2.42,1.11,5.91,2.33,6.52,4.28s-1.46,5.06-3.08,7.07-4.11,3.18-6.31,4.79l10.86,2.47c-6.6,3.14-11.83,5.29-16.72,8s-9.69,6.23-15.44,10C860.59,81.26,866.65,84,868.17,92s-4.2,13.15-7.65,19.07l13.39,1.33-19.15,9.87-0.47-.45,5.14-6.18C844,120,836.36,133.58,840.88,148.4c8.31-14,21.86-18.69,36.71-21,14-2.14,27.05,1.45,39.87,6.55,22.43,8.92,45.7,13.06,69.81,11.36,8.79-.62,19,0.43,22.24-11.43a3.64,3.64,0,0,1,1.2-.31l-1.91,8.87c6.81-3.39,12.64-6.13,18.29-9.21a7.25,7.25,0,0,0,3.15-4.07c6.47-24.16,6.52-48.68,3.75-73.62l-12.91,4.51c3-3.27,6.46-5.51,9.77-7.94,1-.74,2.43-2,2.35-2.94-0.56-6.6-1.45-13.17-2.24-19.74-8.24,17.57-22.43,23.83-40.29,24.27-12.43.31-23.84-3.86-35.4-7.5-8.11-2.55-16.26-5-25.25-7.71l3.35,6L921.59,40l-0.38,1,1.62,2.58-21.07-3.28Zm113.63,105.52-1.26-1.32c-2.21,2-5,3.55-6.52,6-6.4,10.3-12.21,21-18.62,31.25-6.2,9.94-12.87,19.57-19.34,29.35,5.63,3,6.79,2.84,10-1.73,4.52-6.37,9.08-12.72,13.38-19.25A198.24,198.24,0,0,0,1027.84,142.17Z" transform="translate(-834.38 -9.47)"/><path class="cls-1" d="M954.38,250.51c-5.14-2.31-4.12-7.86-6.07-11.84-0.19-.39,1.22-1.88,2.14-2.45,1.8-1.13,4.24-1.54,5.59-3,4.83-5.27,9.43-10.78,13.84-16.4,0.81-1,.61-3.08.43-4.61-0.35-2.95-2.39-6.8-1.19-8.53,1.42-2.06,5.51-2.28,8.44-3.3l0.64,2.13c-1.38.34-2.74,0.77-4.14,1-3.18.53-4.38,1.92-2.85,5.16,3.12,6.6,15.07,12.22,21.81,9.58,1.61-.63,2.32-3.58,4-6.44,0.39,2.2,1.29,4,.79,5.08-3.17,7.05-6.13,14.29-10.2,20.82-3.52,5.66-9.89,7.94-16.34,8.38a33.18,33.18,0,0,0-13.91,4.43h-3Zm25.61-25c1.15-5.92-2.48-7.06-5.26-8.9l-20.21,24.17,7.39,3.94,0.86-1.31-3.54-4.12,6.16,1.17-1.48-4.57,4.6,1,0.45-3,3.3-.41-2.21-3.89,4.64,1.62-1.31-4.12,3.41,0.42-1-4.76Zm7.63-3.94c-0.24,13-9.16,18.06-19.64,21.74,13.38-.11,22-7.44,26.07-21.74h-6.43ZM985,223l-13.9,16.51C980.73,235.67,985.07,230.41,985,223Z" transform="translate(-834.38 -9.47)"/><path class="cls-1" d="M911.26,100.6c-10.75-18-10.55-35.56-1.47-53.36,1.44,16.35,4.61,31.84,18,43.65,2.64-5.33,3.82-9.86.51-15.22-2.49-4-1.75-8.48,1.86-12.31,2.09-2.21,3.3-5.23,5.13-7.72,6.35-8.66,16-10.85,25-4.93a36.29,36.29,0,0,1,10.32,10.54c1.71,2.7,1.46,6.82,1.57,10.31,0.07,2.09-1,4.19-1.32,6.31-1.45,8.61-3.71,11-12.05,12.42l-0.55,10.37c18.17-1.84,29.26-14.2,39.63-27.81-1.86,20.28-10.92,35.57-29.42,44.58,4.75,3,5,2.86,9.36,1.08,1.46-.59,4.85-0.13,5.05.55,0.75,2.47,1.59,5.83.49,7.79-6.17,10.94-14.71,12.43-24.91,4.44-3.05-2.39-5.64-3.41-9.7-2.94-10.93,1.27-20.61-2.14-29-9.46a8.26,8.26,0,0,0-5.54-1.62c-7.23.54-14,.22-18.92-6.2-3.45-4.51-2.35-9.65-1.16-14.25,1.1-4.23,6.72-4.7,8.35-.89C904.25,100,907.33,100.22,911.26,100.6Zm25.07-21.25-2.05,2.27c1.44,1.08,2.73,2.64,4.34,3.14A85.91,85.91,0,0,0,951,87.65c2,0.31,4.2-.43,6.31-0.69l-0.27-1.88c4.11,2.84,7.65,1.66,9-2.32,1.05-3.11.21-6.87,0.21-10.09l1.84,1.18c2.21-6.89,1.88-7.43-9.23-15l4.52-.66c-15.3-9.23-24-7.84-27.56,5.22L940,57.51c-0.15,4.29-1.56,6.57-5.41,7.79-4.48,1.42-5.58,5.77-2.84,9.66C932.91,76.53,934.6,77.7,936.33,79.36Zm-19.71,30.81c10.21,15,31.35,19.93,44.54,10.55C949.82,103.59,931.93,99.24,916.62,110.16Zm-8.27-52.34-1.72.25c0,6.9-.68,13.88.17,20.67,1.08,8.57,3.5,16.8,11.05,22.59,3.08,2.36,5,1.69,7.3,0l-12.4-14.64,1.07-1c5.07,5.86,9.65,12.34,18,14.29C919,88.71,908.75,76.06,908.35,57.82Zm66,45.8,0.35,1.25-17.44,5.57c1.86,2.87,3.8,5.77,8.66,3.92,14.26-5.44,22-16.57,27.29-30.13-10.56,13.86-25.1,19.77-42,21.42C959.4,109.54,966.79,105.6,974.34,103.62Zm-57.64,2.65c-5.38-5.14-15.78-.27-17.15-10.51-3.47,2.42-5.13,8.7-3.61,12,2.58,5.67,10.47,8.14,18.92,5.2-1.41-1.08-3.11-2.26-4.63-2.06-6.1.8-9.74-1-12.45-6.93C904.1,102.8,909.59,109.2,916.71,106.27Zm41.5,19.43-0.15,1.55c7.61,6.51,15.2,8.14,19.71,4.23,3.09-2.68,4.38-8.23,2.91-10.4-2.77.56-5.34,1.68-7.76,1.42-2.82-.3-5.52-1.8-9.64-3.27,3,7.49,11.13,4.19,14.28,9.12-5.43,2.47-10.24,2.89-14.71-1.81C962,125.62,959.79,125.95,958.21,125.7Zm-3-28.22c-3.21-.24-5.6-0.41-8-0.61a13.71,13.71,0,0,1-2.24-.3c-3-.75-6.53-0.19-8.29-3.79-0.11-.23-1.85.34-3,0.58l-0.55-3.64c-1.71,5.2.86,8.41,5,10.74C944.37,104,949.06,103.32,955.17,97.48Z" transform="translate(-834.38 -9.47)"/><path class="cls-1" d="M1007.82,83.39c3.32,17.6,1.09,39.06-5.42,48.38Z" transform="translate(-834.38 -9.47)"/><path class="cls-1" d="M949.41,74.45c3.11-.56,5.8-0.86,8.39-1.56s5.27-2.7,6.62,2.36l-3.36-1.85L958,80.59C953.71,79.57,950.55,77.68,949.41,74.45Z" transform="translate(-834.38 -9.47)"/><path class="cls-1" d="M936.45,73.63l2.08-7.13,9.43,7,0,1.09Z" transform="translate(-834.38 -9.47)"/><path class="cls-1" d="M949.39,85.52L946,81.1l-4.87,2.37-0.94-1.64,6.87-4.48,3.75,6.71Z" transform="translate(-834.38 -9.47)"/><path class="cls-1" d="M939.38,113.74a18.8,18.8,0,0,0-4-2.73c-0.5-.2-1.78,1.52-1.81,1.55l-7.42-3c3.86-3.77,9.73.92,13.88-1l12.19,6.85c-2.9-.73-6.49,1.53-8.73-2C943.14,113,941.07,113.59,939.38,113.74Z" transform="translate(-834.38 -9.47)"/></g></svg>