<svg id="Layer_1" data-name="Layer 1" xmlns="http://www.w3.org/2000/svg" viewBox="0 0 268.8 158.2"><defs><style>.cls-1{fill:#333;}</style></defs><title>cardinals</title><g id="yUlhoT"><path class="cls-1" d="M739.58,202.31h6.47l-24.09-20,0.92-1.36h7c-8.32-7.1-15.13-14.09-18.61-24.18,8.06,2.4,15.44,4.83,22.93,6.79,31.2,8.18,63,10,95.11,9.16,17.46-.46,35-1,52.23,3,22.27,5.16,42.16,14.42,56.85,32.71,1.66,2.07,3.53,4.18,4.45,6.6,3.52,9.3,10.53,15,18.51,20.38a42.46,42.46,0,0,1,17.54,24.75c0.51,1.9.73,3.87,1.18,6.31-31.3,3.66-54.42,18.22-66.17,48.49-7.37-4-14.48-8.21-21.92-11.75-19-9-38.93-14.61-60.06-15.14-3-.08-4.68-0.88-6.15-3.65-4.45-8.39-12.16-13.54-19.84-18.53-12.29-8-22.53-17.57-27.51-31.87-0.48-1.38-2.46-2.49-4-3.2A89,89,0,0,1,744,207.93C742.58,206.32,741.35,204.59,739.58,202.31Zm232.6,55.94c0,0.16.14-.22,0-0.45-6.13-10.93-16.13-17.44-26.74-23.19a3.23,3.23,0,0,0-3,.53c-5,5.13-9.77,10.4-14.08,15,6.71,0.71,14.38,1.07,21.87,2.44S964.93,256.34,972.18,258.25Zm-1.71,5.18c-16.43-5.79-31.7-5.3-46.86-3.61l6.63,18.25C941.71,269.83,955,265.66,970.46,263.42Zm-44.07-33.2c-1.94,1.07-3.57,1.45-4.34,2.48-8.36,11.23-21.27,10-27.16-2.84l7.47-1.55c-4.57-2.08-8.55-3.68-12.32-5.65s-7.33-4.31-11.09-6.55c1.6,14,14,27.59,29.21,28.12C917.15,244.53,923.76,240.29,926.4,230.22Z" transform="translate(-711.3 -156.8)"/></g></svg>