<svg id="Layer_1" data-name="Layer 1" xmlns="http://www.w3.org/2000/svg" viewBox="0 0 295 159"><defs><style>.cls-1{fill:#333;}</style></defs><title>chargers</title><g id="OD2PHG"><path class="cls-1" d="M1044.88,403c9.36,1.32,18.8,2.25,28.07,4,44.92,8.62,81.51,29.83,105.06,70.38,10.94,18.83,17.15,39.23,19.84,60.76,0.2,1.62.68,3.22,1,4.82v19c-9.59-14.77-18.86-29.77-28.87-44.24a154.22,154.22,0,0,0-31.6-34l7.25,17.71c-23-13-45.81-23-69.95-29.81-24.35-6.85-49-10.21-75-8l7.38,10.82-102.61,86.9L903.88,557V541c0.5-2.23,1.12-4.43,1.48-6.68,3.76-23.4,14.26-43.81,27.75-62.91,0.57-.81,1.18-1.61,1.71-2.45a4.17,4.17,0,0,0,0-1.44l-11.62-1.31A149.42,149.42,0,0,1,979,426.61c21.37-8.84,43.68-12.61,68.12-11.56l-9.28-12h7Zm147.54,137.66c-8.69-86.39-77.63-128.37-141.72-130.42l7.22,10.52c-46.37-2.32-87.79,7-122.14,40.69l8.71,1.59c-7.78,12.94-16.1,25.55-23.16,38.83-8.48,16-12.91,36.73-10.18,43.42,23.09-32.33,51.65-57.81,89.24-72.73l-11-13.24c52.34-6.45,99.42,6.9,145.69,30.27l-11.67-23.62C1153.2,484.21,1173.49,511,1192.42,540.66Z" transform="translate(-903.88 -403)"/></g></svg>