<svg id="Layer_1" data-name="Layer 1" xmlns="http://www.w3.org/2000/svg" viewBox="0 0 275 173.22"><defs><style>.cls-1{fill:#333;}</style></defs><title>chiefs</title><g id="HFce0j"><path class="cls-1" d="M1143.88,112.51c-4.84,8.82-11.48,15.09-21.71,17.65-3.43.86-6.93,4.16-9,7.28-3.78,5.84-8.86,9-15.15,11.38-5.63,2.14-10.73,5.66-16.17,8.35-4.59,2.27-9.37,4.13-14,6.32-4.12,2-8.17,4-12.18,6.21-2,1.1-3.74,3.07-5.87,3.65-11.13,3-22.41,5.49-33.51,8.59-5.54,1.55-10.74,4.27-16.23,6a118.79,118.79,0,0,1-12.86,3c-5.63,1.14-11.6,1.34-16.86,3.39-7.56,3-15,3.43-22.93,2.82-7.7-.58-15.53.37-23.29,0.72-2.14.1-4.28,0.67-6.41,0.68-8.1,0-11.13-4-9-11.84,1.71-6.41,3.68-12.75,5.3-19.18s-1.7-9.42-8.15-7.84c-3.23.79-6.7,0.54-10,.94s-6.45.93-9.65,1.57a20.9,20.9,0,0,0-3.18,1.42c-6.53,2.55-11.47-.78-10.16-7.52,2-10.14-1.53-19.26-4-28.65v-16c2.78-7.4,6-14.69,8.18-22.26,1.08-3.66.5-7.84,0.44-11.78,0-2.46-.8-4.92-0.75-7.37,0.14-7.33,3.5-9,10.25-6.32,2.32,0.93,6,.35,8.29-0.88,5.35-2.82,9.71-3.42,14.25,1.55,1.29,1.42,5.1,2.26,6.54,1.38a7.91,7.91,0,0,0,3.09-6.47c-0.76-5.21-2.63-10.25-4-15.36-0.44-1.6-1-3.17-1.31-4.8C912,29,915.94,24.08,926,25.67a110.61,110.61,0,0,0,29.21.91,20.1,20.1,0,0,1,11,2.16,23.07,23.07,0,0,0,14.3,2.75c7.22-.85,13.5,1.38,19.83,5,4.37,2.51,9.9,3.64,15,4a35.79,35.79,0,0,1,15,4.35,39.15,39.15,0,0,0,15.41,4.56c7,0.52,13.24,2,19.08,6.15,3.28,2.32,7.4,3.6,11.31,4.85,6.75,2.17,12.79,5,17.45,10.81,2.15,2.7,6.16,4.31,9.65,5.47,4.39,1.46,8.12,3.17,10.92,7.18,1.94,2.77,4.92,4.86,7.61,7,7.31,5.92,14.72,11.72,22.08,17.57v4Zm-263.27,32-0.64.11c0,2.33-.46,4.8.17,6.95,0.4,1.35,2.75,3.4,3.66,3.14,5.84-1.68,11.52-2.92,17.52-.65,1,0.39,2.54-.52,3.83-0.85,13.07-3.4,18.19,1.4,15.5,14.53-0.1.49-.34,0.95-0.42,1.44-0.86,5.24-1.92,10.45-2.48,15.72-0.4,3.74,1.4,6,5.58,5.78,2.82-.17,5.66-0.12,8.49-0.26,7.93-.39,15.88-0.52,23.76-1.35,5.69-.6,11.27-2.14,16.9-3.28,4.05-.82,8.06-2.05,12.15-2.44,7.5-.72,14.65-1.73,21.31-6,3.57-2.29,8.45-2.55,12.75-3.68s8.63-2.09,12.89-3.32c3.49-1,6.95-2.15,10.32-3.49,4.26-1.68,8.44-3.6,12.63-5.45,5.26-2.32,10.49-4.7,15.74-7,4.66-2.07,9.44-3.89,14-6.22,5.12-2.64,10-5.72,15-8.62,2.14-1.24,4.74-2.06,6.31-3.81,6.93-7.67,14.83-13.31,24.94-16.46,8.08-2.52,8.15-6.53,1.37-11.82-5-3.88-9.86-7.88-14.93-11.63-3.41-2.53-6.79-5.7-10.69-6.85a25.2,25.2,0,0,1-14.52-10.47c-3-4.39-7.46-7.16-13.11-7-6.1.22-11.48-1.42-16-5.61a28,28,0,0,0-18.43-7.6c-3.74-.2-7.33-2.73-11-4.05s-7.71-3.46-11.64-3.63a44.69,44.69,0,0,1-21.29-6c-5.88-3.44-12.11-6.25-19.38-4.1-5.59,1.65-10.67.34-15.66-2.79a21.69,21.69,0,0,0-9.43-2.85c-8.74-.73-17.53-1-26.3-1.34-7.62-.3-8.93,1.25-7.15,8.65,1.21,5,3.09,9.85,4.14,14.87,1.77,8.46-4.84,17-12.3,15.17a56.74,56.74,0,0,0-18.84-1.67c-8.33.72-12,3.54-10,11.59a18.56,18.56,0,0,1-2.74,15.18,35.3,35.3,0,0,0-5.66,24.73C877.84,129.58,879.33,137,880.61,144.53Z" transform="translate(-868.88 -25.37)"/><path class="cls-1" d="M969.84,63.5c0.61,5,0,8.67-2.86,12.9-2.51,3.64-1.78,9.51-2.48,14.39L966,91.43c10.19-5.83,20.42-11.59,30.49-17.62,1-.6.67-3.09,1.54-4.28,1.6-2.18,3.55-5.65,5.49-5.75,10.94-.56,21.92-0.27,33.26-0.27,0.11,4.4,1.49,8.64-2.78,11.57a7.84,7.84,0,0,1-3.53,1.38c-8.34.76-13.18,2.79-21.59,9.82,2.64,0.2,4.27.75,5.61,0.35a65.87,65.87,0,0,1,45.86,2.48,8.29,8.29,0,0,0,4.66-.06c4-.91,8-2.05,13.05-3.37,0,9.65.29,17.9-.24,26.1-0.11,1.7-3.13,4.29-5.08,4.56-3.29.46-7.15,1.69-9.87-2.39-8.65-13-21.35-16-35.91-14a20.22,20.22,0,0,0-2.75.93c4.19,4.33,7.69,8.79,12,12.19,3.93,3.08,1.92,6.7,1.67,9.81-0.15,1.8-3.34,4.69-5.26,4.77-10.77.47-21.58,0.22-33.23,0.22l1.08-12.54c-4,1.31-6,6.19-3.83,11.2a20.51,20.51,0,0,0,12.83,11.84c17,5.58,33.42,3.72,49-5,1.15-.64,2.57-1.37,3.1-2.44,3.82-7.65,10.58-5.43,17.06-5.47,0.45,6-2.33,10.4-5.7,14.51-6.56,8-15.19,12.93-25,15.63-18.78,5.18-37.59,5.33-55.73-2.31-23.6-9.93-27.11-34.33-7.77-51.12a3.88,3.88,0,0,0,1.39-3,34.5,34.5,0,0,0-4.16,1.66c-4.22,2.33-8.45,4.65-12.52,7.23-1.52,1-2.59,2.62-3.87,4l5.2,2a7.48,7.48,0,0,1,.24,1.39c0.47,12.24.15,12.56-12.23,12.56H931c-0.87-5.39-1.7-10.8,4.14-14.71a4,4,0,0,0,1.55-2.79c0.11-11.29.07-22.58,0.07-34l-5.21-.89c-1.83-8,1.37-12.1,9.35-12.1h28.94Z" transform="translate(-868.88 -25.37)"/></g></svg>