<svg id="Layer_1" data-name="Layer 1" xmlns="http://www.w3.org/2000/svg" viewBox="0 0 149.84 158.21"><defs><style>.cls-1{fill:#333;}</style></defs><title>colts</title><g id="_4BFvHO" data-name="4BFvHO"><path class="cls-1" d="M945.66,310.17c0.17-22.37,7.11-39.72,18.12-55.69,1.89-2.74,4-5.32,5.73-8.18,0.66-1.11.93-3.16,0.33-4.1s-2.72-1.43-3.85-1.08c-4.41,1.35-5.22-.66-5.13-4.47,0.27-11.92,1-12.7,12.91-12.33a85.49,85.49,0,0,1,8.95.79c5.84,0.8,9.8,5.2,10.22,11.16,0.49,7-1.73,13.15-5.55,18.79-8.3,12.24-14.61,25.35-17.74,39.86-4.23,19.59,2.61,35.6,17.15,48.25s31.87,15.77,50,9.36c20.13-7.11,32.87-21.36,35.29-43a47.67,47.67,0,0,0-2.74-21c-4-10.84-9.39-21.22-14.82-31.46-3.38-6.39-7-12.45-6.71-20,0.27-6.54,4.06-11.13,10.52-11.91,4.78-.58,9.63-0.63,14.44-0.93,3.79-.24,6,1.21,6.21,5.31,0.09,2.14.64,4.26,0.88,6.41,0.42,3.89,0,6.84-5.28,5.16-1-.32-3.35.43-3.42,0.91-0.22,1.66-.22,3.73.62,5.07,3.42,5.51,7.55,10.6,10.75,16.22,11.11,19.48,16.53,40.38,10.21,62.37C1080.28,369,1038,394.29,992.24,376.81,966.25,366.9,944.54,336.47,945.66,310.17Z" transform="translate(-945.62 -224.19)"/></g></svg>