<svg id="Layer_1" data-name="Layer 1" xmlns="http://www.w3.org/2000/svg" viewBox="0 0 153.91 143.93"><defs><style>.cls-1{fill:#333;}</style></defs><title>dallas</title><g id="J52ixM"><path class="cls-1" d="M960,177.82c-12.14-8.42-24.31-16.8-36.41-25.29-9.08-6.37-9-6.36-17.93-.12-11.88,8.29-23.86,16.44-35.8,24.64-0.75.52-1.6,0.9-3.35,1.87,3.67-11.38,7-21.79,10.4-32.18,1.75-5.38,3.27-10.87,5.46-16.07,1.64-3.89.43-6-2.67-8.24-12.87-9.46-25.6-19.13-38.37-28.73-1-.78-2-1.65-3.71-3.08,2.17-.17,3.54-0.37,4.92-0.37,15.83,0,31.67-.13,47.5.09,3.73,0.05,5.18-1.32,6.28-4.7,5.37-16.44,11-32.79,17-50.64,1.34,3.63,2.3,6.11,3.17,8.61,4.84,14,9.73,28,14.41,42.05,1.1,3.29,2.65,4.6,6.31,4.53,17-.33,34-0.32,51-0.43,0.61,0,1.23.09,3.3,0.24-7.45,5.5-13.89,10.3-20.37,15-7.93,5.79-15.81,11.67-23.91,17.21-2.92,2-3.35,3.87-2.27,7.06,4.93,14.49,9.65,29.06,14.45,43.6,0.46,1.4.9,2.8,1.35,4.19ZM952.93,168l1-.63c-3.52-10.86-7.14-21.7-10.52-32.6-3.53-11.42-3.38-11.38,6.2-18.38,9.87-7.21,19.63-14.55,29.44-21.84l-0.32-1H974c-13.32,0-26.64-.09-40,0.06-3.1,0-4.72-.75-5.73-3.89-3.16-9.81-6.66-19.51-10.07-29.24-1.37-3.91-2.83-7.79-4.58-12.57-0.78,1.61-1.11,2.16-1.32,2.75-4.54,13-9.14,26-13.54,39.12-1,3-2.51,4-5.73,4-13.15-.16-26.3,0-39.45.08-1.19,0-2.37.25-4.77,0.52l31.5,23.93c7.38,5.61,7.39,5.62,4.89,14.3-0.74,2.55-1.58,5.08-2.35,7.62-2.78,9.14-5.55,18.29-8.62,28.39,2.05-1.2,3.19-1.79,4.26-2.49,10.82-7.15,21.72-14.18,32.37-21.57,2.85-2,4.66-1.85,7.4,0C929.75,152.47,941.37,160.17,952.93,168Z" transform="translate(-837.67 -35)"/><path class="cls-1" d="M863.18,98.3c10.1,0,20.22-.39,30.29.16,5.39,0.29,7.52-1.72,9-6.52,3-9.69,6.56-19.21,9.91-28.79,0.25-.71.67-1.37,1.43-2.9,3.93,11.14,7.87,21.34,11.05,31.77,1.38,4.52,3.41,5.77,8,5.63,11.6-.36,23.22-0.12,36.29-0.12l-22.33,15.7c-0.14.1-.29,0.16-0.43,0.25-11.93,7.93-11.86,7.9-7.17,21.71,2.52,7.4,4.73,14.89,7.06,22.35a5.16,5.16,0,0,1-.3,1.53l-31.37-22.7L880.71,160.2c3.07-9.36,5.74-17.29,8.28-25.27,5.05-15.86,6.34-10.39-6.41-20.57-6.49-5.18-13.19-10.08-19.8-15.11Z" transform="translate(-837.67 -35)"/></g></svg>