<svg id="Layer_1" data-name="Layer 1" xmlns="http://www.w3.org/2000/svg" viewBox="0 0 259 194"><defs><style>.cls-1{fill:#333;}</style></defs><title>dolphins</title><g id="QNAcjo"><path class="cls-1" d="M120.88,442.51q0-97,0-194h259v194h-259ZM181,375c0.7-2.2,1.57-3.88,1.7-5.6s0-4-1-4.89-3.21-.51-4.88-0.38c-2.12.16-4.2,0.77-6.32,0.94A55,55,0,0,1,147,361.83c-4-1.44-8.11-2.65-12.23-3.75a59.39,59.39,0,0,0-6.73-1c-0.17,2.32-1.13,5-.37,6.92,4.26,11,12.95,17.8,24.11,19.43a180.09,180.09,0,0,1,32.71,7.51,21.44,21.44,0,0,0,4.37,1c7.34,0.89,14.69,1.71,22.67,2.62l-8,16.14c6.14-3.2,11.26-6.87,16.63-10.15,5.06-3.09,6.53-2.18,6.33,3.58-0.11,3.35-.54,6.69-0.87,10.68l13.21-8.83v31.88l1.24,0.24,15.79-26.91,1.59,0.33,5.19,13.74,7.65-15.67,1.86,0.1,10.55,20.48,1-.47,1.57-21,1.95-1,7.77,10,1.37-.87-1.22-13.26,1.23-.76,23.78,18.06c-3-8.75-6.87-16.48-10.42-24.34-0.81-1.79-.63-4-0.91-6.06a36.72,36.72,0,0,1,6.24.08c3.74,0.67,7.42,1.71,12.24,2.87L318.21,379l0.86-1.56,34.16,5.73,0.31-.89-28-18,0.47-1.48,19-3.45-14.46-8.9,0.14-1.66,22.62-7.32c-6.81-2.08-13.49-3-20.05-4.5-5.69-1.26-6.87-4.29-3.11-8.89a79.39,79.39,0,0,1,11.75-11.39c5.3-4.27,11.34-7.66,16.48-12.1,2-1.77,3.94-5.72,3.34-8-0.67-2.57-4.06-6-6.56-6.22-5.05-.53-10.3.77-15.46,1.42-1.61.2-3.23,1.24-4.74,1.07-8.45-1-16.87-2.23-25.7-3.44l1.61-7.16-15.4,6-1.14-1.3,6.35-19.9-0.81-.46-14.56,13.54-1.4-.73V253.2l-1.37-.32-13,25.93-1.56-.48-5.07-14c-1.54,4.77-2.41,8.23-3.76,11.5-1.64,4-3.57,4.13-5.81.43-2.84-4.69-5.25-9.63-7.92-14.43-0.79-1.43-1.8-2.74-3.19-4.83l-2.75,25.13-12-8.88-0.69.83,3.15,11.5-1.14.7-26.17-17.38a8.63,8.63,0,0,0,1.15,4.57c3.35,7.41,6.73,14.8,10,22.25,1.54,3.52.21,4.62-3.45,3.86-3.37-.7-6.81-1-11.26-1.65l6.65,8.29-0.56,1.41-29.36-4.36-0.25.8L200,321.27l-0.6,1.72-16-.9,0,1L197,331.3l-0.35,1.52-27.13,7.74,0.14,1,26.85,8.14-11.78,12.41,13.65,3.11C194.81,372.75,194.22,373.07,181,375Z" transform="translate(-120.88 -248.51)"/><path class="cls-1" d="M175.38,383.87c-6.92-3.93-14.84-2.8-22.22-4.35-10.88-2.28-18-8.93-22.06-18.1,4.56,1.46,9.29,2.85,13.94,4.48,4.82,1.69,10.34,2.63,14.21,5.63,15,11.59,30.42,9.38,44.69.59,11-6.8,20.42-16.35,30.06-25.21,4.66-4.28,2.69-10-3.6-11.55-3.62-.91-7.5-0.85-11.61-1.26a23.52,23.52,0,0,1,13.76-7.47c4.25-.77,8.63-2,12.84-1.64,8.39,0.72,13.9-3.77,19.8-8.55,12.39-10,25.92-18.32,42-20.72,7.29-1.09,14.91-.72,22.3-0.08,5.14,0.44,10,1.08,15.06-.66,3.56-1.21,7.61-1,11.65-.41-17.52,2.93-33.09,10.38-47.95,19.4-15.54,9.44-24.34,24.38-31.45,40.84,2-1.59,4-3.14,6-4.76,15.94-13.12,31.72-26.44,47.87-39.29a57.87,57.87,0,0,1,27.39-12l1.83,2a29.78,29.78,0,0,0-5,2.71c-13.39,10.93-26.78,21.87-40,33-1.86,1.57-2.9,4.24-4,6.54-4,8.16-7.72,16.5-12,24.51-1.39,2.57-4.31,4.31-7.6,7.45l2.9-20.15c-4.36,3-7.48,5.4-10.84,7.4-12,7.16-23.74,14.79-36.2,21-6,3-13.26,3.44-20,4.61-15.25,2.63-30.48,2.77-45.52-1.48a52,52,0,0,1-6.27-2.66c6.38,0.89,12.75,2.13,19.18,2.62,18.43,1.4,35-5,51.14-12.86,5-2.41,7.26-7.17,6.56-13.85-23.72,16.18-48.52,28.09-79.5,20.86Zm144-80.5c-6.75-2.77-11.83,0-12.91,6.76Z" transform="translate(-120.88 -248.51)"/><path class="cls-1" d="M213.61,281.95c4.35,2.87,8,5.56,11.86,7.75,6.07,3.41,8.29,2.14,9.08-4.69,8.2,2.08,9.82.24,10.88-12.88,1.51,2.37,2.75,4.44,4.12,6.42,4.94,7.1,8.58,7.06,13.62-.32,0.49,1.1.88,2.11,1.37,3.06,2.31,4.43,4.81,4.76,7.71.55,2.61-3.79,4.66-8,7.2-12.42a79.23,79.23,0,0,0,.1,9.57c0.27,2.11.92,5.13,2.36,5.88s4.16-.66,6.24-1.34a12.16,12.16,0,0,0,2.72-2c0.46,3.76-2.86,8.85,2.23,10.33,3.23,0.94,7.22-.73,10.71-1.21-3.07,3.15-9.5,4.35-13.18,2.46-20.07-10.34-40.19-10.34-59.32,1.65-19.28,12.08-28.43,30.26-27.68,53.06,0.15,4.58,1.79,9.1,2.41,13.69,0.22,1.67-.56,3.46-1.72,5.33-0.34-6.88-5.61-6.64-9.84-7.63a7.12,7.12,0,0,1,.41-1.06c1.91-3.11,5.5-6.39,5.21-9.27-0.22-2.21-5.23-4.15-8.33-5.78-2-1.06-4.4-1.36-6.77-2,4.29-1.4,8.58-2.53,12.65-4.19,6.24-2.55,6.6-4.63,2.55-9.17,1.75-1,4.89-1.8,5.13-3.14,0.33-1.81-1.34-4.18-2.57-6a19.18,19.18,0,0,0-4-3.74c-1.39-1.14-2.91-2.13-5.27-3.84,4.23,0.37,7.4.84,10.58,0.89,6.66,0.11,7.63-1.15,6.21-7.75,1-.06,2-0.13,2.94-0.18,5.14-.27,7.14-2.72,5.66-7.93C217.63,291.41,215.58,287,213.61,281.95Z" transform="translate(-120.88 -248.51)"/><path class="cls-1" d="M332,357.08c-3.16.58-5.49,0.81-7.69,1.46-4.76,1.42-5.75,4.48-2.3,8,3,3.07,6.52,5.56,10.05,8.51-3.46-.58-6.78-1.55-10.09-1.57-2.63,0-5.88.45-7.66,2-1,.92.21,4.5,0.59,6.85a18.28,18.28,0,0,0,1.17,3.22c-13.1-1.61-15.06.94-10.36,13,1,2.47,2.22,4.81,3.87,8.34-3.66-2.76-6.28-5.17-9.31-6.87-2.3-1.29-5.11-1.65-7.69-2.42l-1.89,6.89c-2.36,0-6.47-1.19-8,.29-2,1.94-2,6-2.6,8.23-2-2.41-4.24-7.53-7.44-8.24-2.76-.61-6.63,3.82-10.55,6.37a1.4,1.4,0,1,0,.44.24c-4.45-8.14-6.67-8.33-12-.64-2.52,3.66-4.57,7.65-7.29,12.26,0-5.6.18-10.46,0-15.3-0.32-6.71-2.73-7.9-8.54-4.46-1.24.74-2.43,1.57-3.83,2.47,0.75-12.35-1.34-13.44-15.26-8-0.18-3.19.67-4.72,4.2-5A24.77,24.77,0,0,1,234.72,396c35.67,19.8,81.24-3.94,85.55-44.33,0.45-4.25,0-8.58.31-12.85a11.27,11.27,0,0,1,2-5c2.29,6.71,8.35,6.35,13.52,8.16-2.58,1.15-5,2-7.19,3.25-5.28,2.91-5.45,5.79-.67,9.3C329.15,355.2,330.13,355.81,332,357.08Z" transform="translate(-120.88 -248.51)"/><path class="cls-1" d="M162.55,369.33l18.25-1.11-4.33,7.65-14.14-5.66Z" transform="translate(-120.88 -248.51)"/></g></svg>