<svg id="Layer_1" data-name="Layer 1" xmlns="http://www.w3.org/2000/svg" viewBox="0 0 153.85 159.53"><defs><style>.cls-1{fill:#333;}</style></defs><title>falcons</title><g id="MuHW2M"><path class="cls-1" d="M860.92,646c-7.92-5.13-12.67-11.84-16.81-19.14-1.1-1.93-2.75-3.54-4.54-5.79L876,567.66l-0.83-.61-36.79,43.18c-4.13-8-1.39-17.61-6.34-25.93l43.84-34.59-0.61-.89-40.62,24.49c1.25-6.69,2.47-12.53,3.35-18.42,0.27-1.8-.42-3.74-0.83-6.76L885.31,532l-0.24-.85-41.8,8.42,8.34-14.74-3-3.63H898.5l0.06-1.09-75.33-5.83L844.69,491l-2.26-4.53c9.47,1.58,18.13,2.93,26.75,4.49,27.31,4.94,54.61,10,80.93,19.07a96.9,96.9,0,0,1,20.54,9.88c6.74,4.31,8,10.65,4.69,17.17-2.94-5.08-7.65-5.87-12.82-5.86-18.49.06-37,0-55.48,0h-5.79l5.92,4-12.43,24.78c-10.44,20.81-20.83,41.65-31.36,62.41C859.68,629.77,858.43,637.23,860.92,646Zm91.73-117.31c7.46,1.5,15.61-2.12,22.25,3.86l1.12-1-4.79-8.4C965.46,529.09,958.14,525.76,952.65,528.71Zm2.22-13L954.1,517c4.15,1.45,4.88,8.45,12.64,6.22Z" transform="translate(-823.23 -486.49)"/><path class="cls-1" d="M924.16,570.36c-1.29-.76-3-1.16-3.41-2.11-2.67-6.38-8.14-4.88-13.07-5-2.79,0-5.59,0-9.19,0l13-26.09c12.08,6.38,25.08,12.77,36.66,24.11l-12.81,8.46-0.95-1,2-4.35C927.93,561.08,923.83,563,924.16,570.36Z" transform="translate(-823.23 -486.49)"/></g></svg>