<svg id="Layer_1" data-name="Layer 1" xmlns="http://www.w3.org/2000/svg" viewBox="0 0 212.2 166.69"><defs><style>.cls-1{fill:#333;}</style></defs><title>giants</title><g id="Q7c3rI"><path class="cls-1" d="M496.7,629.4V595H645.24c11.73,0,12.39-.79,10.47-13.2-2,.61-4,1.23-6,1.79-17,4.74-34.56-.76-41.68-14.17a44.54,44.54,0,0,1-4.72-18.52c-0.65-15.8-.21-31.65-0.22-47.47,0-6.69-.92-7.59-7.84-7.72-1.8,0-3.6,0-5.81,0v-30.1h50.5c0.11,1.88.33,3.8,0.33,5.72,0,22,0,44,0,66,0,2.65-.29,5.64.8,7.86a11.82,11.82,0,0,0,5.85,5.69c3.46,1.22,6.64-.7,7.86-4.35a25.34,25.34,0,0,0,1.28-7.78c0.1-22.49.06-45,.06-67.47,0-1.8,0-3.6,0-5.73h37.45v5.22q0,63.47,0,126.95c0,20-10.47,31.76-30.28,31.91-54.81.42-109.62,0.16-164.43,0.15A14.83,14.83,0,0,1,496.7,629.4Z" transform="translate(-481.42 -463.16)"/><path class="cls-1" d="M496.37,582.67c0-2.19,0-4.16,0-6.12q0-35.22,0-70.45c0-10.76-1.6-12.06-12-9.82-0.94.2-1.89,0.32-3,.5V465.2H507q10.24,0,20.48,0c2.41,0,5.36-.75,4.39,4a43.63,43.63,0,0,1,26.8-5.88c16,1.48,26.1,12.37,26.21,28.46,0.12,16.32,0,32.64,0,49,0,12.58,0,12.58,12.43,12.12v29.72c-1.21.1-2.63,0.3-4,.31-8.16,0-16.32,0-24.48,0-13.29,0-19.81-6.54-19.85-20-0.06-19,0-38-.12-57,0-6.6-3-9.4-9.11-9-5.32.39-7.28,2.58-7.27,8q0.05,36.47.07,72.94c0,1.46,0,2.92,0,4.66H496.37Z" transform="translate(-481.42 -463.16)"/></g></svg>