<svg id="Layer_1" data-name="Layer 1" xmlns="http://www.w3.org/2000/svg" viewBox="0 0 233.46 187.2"><defs><style>.cls-1{fill:#333;}</style></defs><title>jaguars</title><g id="NwwgIH"><path class="cls-1" d="M1161.38,328.25c-6,2.68-12.58,5.55-19.1,8.49-3.87,1.74-4.31,5.91-1.77,11.57,2,4.51,4.88,2.52,7.23,1,4.26-2.78,8.22-6,12.57-9.27,3.28,7.28,2.47,14.21.33,21.14-6.83,22.15-30.93,35.42-52.21,27.76-6.6-2.38-12.72-7.26-17.91-12.21-15.49-14.75-32.42-26.87-52.62-34.56a111.8,111.8,0,0,1-24.41-13.41c-16.14-11.43-22.33-27.6-19.73-47.1,0.46-3.4,1.76-6.69,2.76-10.38l-12.9-5.59a137.55,137.55,0,0,1,41.22-39.05c20.82-12.83,43.63-19.39,67.84-21.78,18.75-1.85,37.26-1.26,55.34,4.49A83.79,83.79,0,0,1,1179,227c4,3.62,5.41,7.49,5.13,12.67a7.59,7.59,0,0,0,2.52,5.56c7.83,6.08,15.1,12.53,19.9,21.43,1,1.8,3,3.1,4.59,4.49,6.43,5.44,7.54,8.31,3.8,16-2.25,4.62-6.06,8.5-9.23,12.66-2.34,3.08-5.19,5.85-7.08,9.17-7.42,13.06-19,19.62-33.34,22C1164.33,331.16,1163,329.46,1161.38,328.25Zm18.43-31.12c-9.33-11.27-23.3-13-35.91-17.75a68.64,68.64,0,0,1,14.85-.44c9.23,1,18.39,2.64,27.58,4,5.66,0.85,14.12-7.35,12-12.39-1.8-4.3-5.44-7.83-8.91-12.59l-2.53,7.59-8.35-14.74-4.08,7.59c-0.79-3.93-.92-6.89-2-9.42-1.36-3.14-1.32-5.41,1.2-8s2.19-5.53-.74-7.74c-9.74-7.34-19.72-14.38-31.76-17.42-25.61-6.46-50.87-4.35-75.73,3.88a93,93,0,0,0-34.77,20.56c6-1.24,10.63-2.34,15.31-3.12,4.92-.82,9.87-1.54,14.83-2a141.27,141.27,0,0,1,14.48-.44c4.78,0.1,9.55.63,14.32,1a364.32,364.32,0,0,0-64,42.43c-1.21,1-3.67,1.11-5.39.79-4.85-.92-9.61-2.28-15.4-3.71l-2.07,20.39c5.59-1.9,9.74-3.53,14-4.74,31.13-8.82,62.5-8.24,94-2.2,7.68,1.47,15.17,3.19,21.72,8.15C1149,309.41,1162.33,309.36,1179.81,297.13Zm-55.69,46.06c-1.47-5.31-4-9.86-3.63-14.15,0.61-6.77-2.31-9.19-8-10.21-0.76-.13-1.5-0.34-3.27-0.74l2.91,16.65c-4.69-3.54-6.59-8.75-8.14-14.15-0.7-2.44-1.41-4.28-4.64-4.78-7.55-1.18-11.64.47-16.51,8a20.08,20.08,0,0,0,3.85.56c4.6-.24,7.12,1.7,9.5,5.89a56.84,56.84,0,0,0,11.6,14.08c7.52,6.7,9.18,6.28,16.19-.91A0.92,0.92,0,1,0,1124.12,343.19Zm54.24-33.1,1.47,0.9-6.41,11.3c8.11-1.64,16.6-10.36,18.29-20-3.21.84-6.07,1.13-8.5,2.3-11.68,5.62-23.7,10.9-36.79,7.11-7.5-2.17-14.29-6.84-21.32-10.54-4.78-2.51-10.71-1.62-13.66,1.56,10.31,3.6,21.07,7.4,31.86,11.1,3.85,1.32,4.18,3.69,2.48,6.93-1.26,2.39-2.46,4.82-3.92,7.7,9.81-1.55,15.53-7.93,21.08-14.77l1.31,3.36,3.69-4.3,1.72,3.78,3.91-5.23,1.68,2.74Zm-36.2,64c-2.07-3.93-5.17-5-8.95-4.27a42.82,42.82,0,0,0-6.25,1.69c-18.1,6.32-18,6.2-31.17-8.06-12-13-26.4-22.48-43.91-27.34,7.11,4.26,14.54,7.61,20.62,12.61,9.6,7.9,18.42,16.78,27.32,25.5C1110.68,384.85,1131.48,385,1142.16,374.1Zm12.2-19.63-1-.53-9.08,7.38-1.32-3.84-3.17,2.23-1.48-3.17c-2,2.08-3.86,4.21-5.18,0l-4.06,3.53V349.15a14.17,14.17,0,0,0-2.17,1.29c-1.09,1-2.12,2.11-3.14,3.21-8.68,9.36-10.88,9.25-20,.24-3.23-3.18-7.23-5.59-10.88-8.36l-0.74,1c2.21,2.47,4.55,4.84,6.58,7.45s3.73,5.51,5.61,8.25c4.46,6.5,7.23,7.35,14.8,4.72,3.3-1.15,6.6-2.31,10-3.26,6.51-1.84,12.85-2.26,18.89,4.18Zm-57.28-57-0.3-1.92c-24-4.59-69.13-.1-80.29,8.06,0.6-.08,1.1-0.1,1.57-0.22,22-5.23,44.13-8.29,66.81-4.79C1088.79,299.23,1093,297.93,1097.08,297.5ZM1034,261.87a96.47,96.47,0,0,0-35.78,2.91c4.94,2,10,3.49,14.94,5.12C1023.16,273.18,1027.53,271.6,1034,261.87Zm-10.15,51.3c15.23-.72,32.13-1.47,49-2.4,2.3-.13,4.55-1.11,6.82-1.7l-0.42-1.75C1059.9,306.34,1040.74,307.46,1023.87,313.17Zm168.49-16.69c7.44-.82,14.4-7.37,15.39-13.88,0.39-2.55.53-5.29-2.51-6.2Z" transform="translate(-983.64 -203.91)"/><path class="cls-1" d="M1104.74,252.31a88,88,0,0,1,9.43-1.62c9.34-.62,18.4-0.85,25.63,7.26,2.18,2.45,6.8,2.81,10.37,3.89,2.12,0.64,4.37.83,6.61,1.79-10.79,1.62-21,4.19-28.77,13-10.61-10.59-23.48-14.39-38-14.28,11.74-3.53,23.79-4.64,36-5.35-6.42-5.38-14.19-1.71-21.11-3.38Zm18.3,14.18c2.73,3,7.14,3.87,9.94,1.43,1-.89,1.26-2.67,1.59-3.44Z" transform="translate(-983.64 -203.91)"/><path class="cls-1" d="M1043.21,281.42c38.2-7.35,75.06-2.8,111.21,12.11-1.63,3.32-3.63,3.42-6.34,2.42-20.55-7.58-41.69-13-63.56-14.37C1070.8,280.71,1057,281.42,1043.21,281.42Z" transform="translate(-983.64 -203.91)"/><path class="cls-1" d="M1083.42,230.18a9.67,9.67,0,0,1-3.59-1,4.82,4.82,0,0,1-2-3.42c0-.84,1.42-2.35,2.38-2.5a20.11,20.11,0,0,0,12.38-6.53c0.75-.83,3.13-1.34,3.8-0.8a5.29,5.29,0,0,1,1.56,4.07C1097.38,225.72,1091.43,230.08,1083.42,230.18Z" transform="translate(-983.64 -203.91)"/><path class="cls-1" d="M1044.6,277c-0.65-.59-2.58-1.61-3.15-3.14-0.32-.84,1.53-2.64,2.61-3.82,2.06-2.23,4.7-4,6.3-6.53,1.79-2.78,4-4.09,6.48-2.28,1.24,0.91,1.74,4.12,1.21,5.88C1056.52,272.19,1050.19,277,1044.6,277Z" transform="translate(-983.64 -203.91)"/><path class="cls-1" d="M1117.28,214.23c3.16,1.76,6.42,3.42,9.47,5.42,0.58,0.38.74,2.39,0.27,3.12a3.43,3.43,0,0,1-3,1.06c-5.57-1.33-11-2.74-16.38.86-0.49.33-2.7-.69-2.69-1,0-1.68.05-4.28,1-4.83C1109.26,217,1112.93,215.91,1117.28,214.23Z" transform="translate(-983.64 -203.91)"/><path class="cls-1" d="M1098.28,252c-3.54-1.58-7.41-2.71-10.46-5-1.31-1-2-4.89-1.07-6.34,1.6-2.62,3.86-1.17,6.21.49s5.56,2,8.35,3c1.89,0.69,3.7,1.59,5.55,2.4a42.88,42.88,0,0,1-4.76,4.19c-0.85.56-2.25,0.29-3.4,0.39Z" transform="translate(-983.64 -203.91)"/><path class="cls-1" d="M1084.55,269.26c-1.5,1.67-2.68,4-4.55,4.86a17.33,17.33,0,0,1-15.79-.64c-1.41-.78-1.83-3.36-2.7-5.12,1.72-.27,3.75-1.26,5.09-0.67a15.77,15.77,0,0,0,12.06.3c1.51-.51,3.35-0.08,5-0.08Z" transform="translate(-983.64 -203.91)"/><path class="cls-1" d="M1078.66,246.25c2.93,1.28,6.73,2.47,9.93,4.56,1.2,0.79,1,3.69,1.47,5.62-1.74,0-3.75.51-5.15-.19-3.75-1.87-7.19-4-11.72-2.34-1.09.39-2.79-.92-4.21-1.45,0.79-1.48,1.23-3.54,2.47-4.3C1073.18,247.09,1075.5,247,1078.66,246.25Z" transform="translate(-983.64 -203.91)"/><path class="cls-1" d="M1146,245.14c-7-.24-12.16-4-13.13-9.06-0.26-1.36.58-2.94,0.91-4.42,1.61,0.41,3.4.49,4.77,1.3a55.46,55.46,0,0,1,7.34,5.28,39.78,39.78,0,0,1,4,4.39Z" transform="translate(-983.64 -203.91)"/><path class="cls-1" d="M1170.77,249c-2.47,1.32-3.68,2.11-5,2.64a71.25,71.25,0,0,1-9,3.27c-1.56.39-3.38-.27-5.08-0.45,0.21-1.59,0-4.28.72-4.58a77.6,77.6,0,0,1,13.18-4.17C1166.7,245.47,1168.27,247.34,1170.77,249Z" transform="translate(-983.64 -203.91)"/><path class="cls-1" d="M1118.35,246.64a58.15,58.15,0,0,1-8.07-2.25c-1-.41-1.32-2.32-2-3.55,1.2-.56,2.4-1.59,3.61-1.61a99.59,99.59,0,0,1,11.85.54c1.38,0.15,2.66,1.28,4,2-1,1.19-1.78,2.82-3.06,3.45C1123,246,1120.9,246.1,1118.35,246.64Z" transform="translate(-983.64 -203.91)"/><path class="cls-1" d="M1146.66,272.7c8.45-4.87,17.44-5.22,26.81-2.21L1147,275Z" transform="translate(-983.64 -203.91)"/><path class="cls-1" d="M1076,265.89a83.35,83.35,0,0,1-7.35-4.11c-0.43-.29-0.11-2.87.25-3a61.64,61.64,0,0,1,8.33-1.58,3.25,3.25,0,0,1,2.29.79,49.83,49.83,0,0,1,3.45,3.74,45,45,0,0,1-4.1,3.1c-0.62.38-1.61,0.17-2.43,0.23Z" transform="translate(-983.64 -203.91)"/><path class="cls-1" d="M1118,235.16c-1-.09-2.2.15-2.93-0.33a39.07,39.07,0,0,1-4.22-3.63,27.94,27.94,0,0,1,3.71-3.47,4.22,4.22,0,0,1,3.32-.63c2.72,1.12,5.26,2.65,7.87,4l-7,5.07Z" transform="translate(-983.64 -203.91)"/><path class="cls-1" d="M1096.19,276a71.67,71.67,0,0,1-7.07-3.89c-0.45-.31-0.13-2.95.2-3a80.55,80.55,0,0,1,8.41-1.46,1.94,1.94,0,0,1,1.43.33c1.48,1.39,2.87,2.88,4.29,4.34-1.62.94-3.22,1.93-4.89,2.77a5.79,5.79,0,0,1-2,.22Z" transform="translate(-983.64 -203.91)"/><path class="cls-1" d="M1153.93,235.63c-7.14.52-10.48-2-11.51-8.64C1149,224,1154.5,228,1153.93,235.63Z" transform="translate(-983.64 -203.91)"/><path class="cls-1" d="M1103.15,226.76c2.43,6.86.35,11.1-6.45,13.14C1093.3,233.5,1096.19,227.6,1103.15,226.76Z" transform="translate(-983.64 -203.91)"/><path class="cls-1" d="M1074.22,224.21c-1.3,5.39-4.76,8.58-9.18,8.26a5.59,5.59,0,0,1-3.75-1.82c-0.46-.62.26-2.5,0.92-3.51C1064.74,223.22,1069.17,222.13,1074.22,224.21Z" transform="translate(-983.64 -203.91)"/><path class="cls-1" d="M1005.2,289.35l0.88-7.32c2.9,0,5.67-.18,8.4.08,1.24,0.12,2.4,1.11,3.6,1.7-0.73,1.37-1.2,3.64-2.23,3.93C1012.6,288.65,1009.15,288.82,1005.2,289.35Z" transform="translate(-983.64 -203.91)"/><path class="cls-1" d="M1157,227.2c4.74,2.1,8.54,3.69,8.85,8.43,0.09,1.38-1,2.84-1.6,4.26-1.48-.78-3.75-1.21-4.3-2.41C1158.61,234.54,1158.08,231.25,1157,227.2Z" transform="translate(-983.64 -203.91)"/><path class="cls-1" d="M1136,247.38c7.07-1.1,9.75.37,11.66,6.15C1141.48,255.84,1137.19,253.68,1136,247.38Z" transform="translate(-983.64 -203.91)"/><path class="cls-1" d="M1022.41,285.35c2.91-2,5.69-4.34,8.81-6,0.87-.45,2.78,1.09,4.21,1.72-0.78,1.28-1.29,3.27-2.41,3.71a74.31,74.31,0,0,1-9.41,2.49Z" transform="translate(-983.64 -203.91)"/><path class="cls-1" d="M1133.25,217.18c3.1,2.07,8,.6,6.28,5.5-0.63,1.8-4.39,4.3-5.55,3.79C1129.19,224.38,1133.53,221.06,1133.25,217.18Z" transform="translate(-983.64 -203.91)"/><path class="cls-1" d="M1057.42,229l-8.47,6.6-1.43-1.82c0.34-5.32,5.39-4.73,8.71-6.3Z" transform="translate(-983.64 -203.91)"/></g></svg>