<svg id="Layer_1" data-name="Layer 1" xmlns="http://www.w3.org/2000/svg" viewBox="0 0 287.42 161.13"><defs><style>.cls-1{fill:#333;}</style></defs><title>jets</title><g id="NcGaaa"><path class="cls-1" d="M249.1,641.07c-40.91-.76-76.2-8.79-108.36-28.34-10.74-6.53-20.46-14.34-28.23-24.33-14.68-18.87-14.66-37.26,0-56.09,8-10.26,18-18.18,29.09-24.84,26.15-15.73,54.68-24,84.95-26.64,36-3.09,70.73,1.9,103.94,16.29,15.23,6.6,29.28,15.14,41,27.13,8.75,9,15.56,19,17.17,31.93,1.12,9-1.23,17.18-5.47,24.91-6.64,12.13-16.58,21.2-27.85,28.84-24.49,16.6-51.9,25.26-81,29C264.79,640.12,255.13,640.57,249.1,641.07Zm-82.38-86.36c-5.07,0-9.24.38-13.31-.1-4.59-.55-7.24,1.31-8.92,5.27-0.52,1.22-1.18,2.39-1.68,3.62-3.45,8.61-.51,14.54,8.64,16.15,4.86,0.86,9.94.42,14.92,0.58,10.5,0.34,17.59-4.57,22.27-13.83,5-9.79,10.34-19.36,15.51-29,0.66-1.24,1.13-2.59,1.91-4.4-6,0-11.34.14-16.64-.06-2.7-.1-4.16.79-5.41,3.22-4.62,9-9.48,17.94-14.28,26.87-0.7,1.31-1.34,3.05-2.5,3.62-1.58.78-3.63,0.64-5.47,0.9,0-1.5-.36-3.19.2-4.47A88.79,88.79,0,0,1,166.72,554.71Zm141.49,23.88c5-.57,9.45-0.88,13.86-1.65a13,13,0,0,0,10-7.5c2.79-5.84,1.52-9.49-4.51-11.82-2.78-1.07-5.78-1.55-8.58-2.58-1-.38-1.81-1.54-2.54-2.47a2.36,2.36,0,0,1,1-1.38,12.83,12.83,0,0,1,3.51,1c1.71,0.79,3.24,2.22,5,2.55a22.71,22.71,0,0,0,7.46,0c1.72-.26,4.54-1.22,4.7-2.22a11.91,11.91,0,0,0-1.31-6.79c-0.62-1.24-2.6-2.14-4.14-2.54a46.51,46.51,0,0,0-26.07.38c-4.66,1.48-7.26,5.15-8.84,9.54-1.75,4.86-.42,7.52,4.56,9.14,2.84,0.93,5.81,1.43,8.65,2.35a4.54,4.54,0,0,1,2.4,2,2.77,2.77,0,0,1-1.45,2.06,8.62,8.62,0,0,1-3.4-1.1c-1.74-.79-3.35-2.12-5.15-2.44a40,40,0,0,0-7.47-.1c-4.38.07-6.46,2.73-4.51,6.69a10.67,10.67,0,0,0,5.6,5C300.6,578,304.69,578.1,308.21,578.59Zm-117.3-1.94h33.57c8.13,0,8.13,0,11.06-8.7H215.22l-0.6-1.5c1.44-.77,2.84-2.06,4.34-2.21,3.47-.33,7-0.11,10.48-0.11,7.18,0,8.85-1.47,10.13-9.35H223l-0.29-1.34c1.3-.52,2.58-1.42,3.91-1.49,3.65-.21,7.32-0.07,11-0.08,6.88,0,8.43-1.39,9.78-9-12,0-24-.06-36,0.09a4.73,4.73,0,0,0-3.46,2C202.33,555.16,196.91,565.42,190.91,576.65Zm57.13,0c6.58,0,12-.17,17.49.07,3.16,0.14,4.75-1.14,6.1-3.86,3-6.09,6.27-12.08,9.73-17.93a6.49,6.49,0,0,1,4.38-2.81c8-.58,8.06-0.5,10.8-9.24H260.69c-7.37,0-8.09.59-10.15,8.76L261,552.11Zm27.54,23.51c-5.31.77-11-2.49-14.33,4.12-0.51,1-2.55,1.73-3.9,1.76q-12,.25-24,0c-1.36,0-3.44-.64-3.94-1.62-3.46-6.78-9.23-3.61-14.36-4.17,1.74,9.37,14.28,16.63,28.52,17C259.74,617.67,273,610.91,275.57,600.16Zm-60.92-1.3c5.43-1.05,11,2.41,14.62-4.11,0.74-1.35,3.78-1.93,5.79-2,6.8-.24,13.62-0.24,20.43,0,2,0.07,5,.67,5.78,2,3.63,6.46,9.09,3.14,14,3.87-1.22-8.7-12.35-15.82-25.35-16.8C232.8,580.56,218.18,587.21,214.65,598.86Zm71.24-78.09,0.86,1.5c-1,.79-2,2-3.17,2.26-1.75.4-3.73-.2-5.45,0.26-1.37.37-3.15,1.43-3.6,2.62-1,2.68,5.24,11.92,9.22,13.45l-7.46-13.93h12.3v-8.55h-73v8.69h6.62c6.53,0,7.31.78,7.8,7.41,0.16,2.11.37,4.22,0.56,6.33,4.71-9.52.89-16-8.54-16.4-1.47-.06-2.89-1.18-4.34-1.82,1.44-.61,2.88-1.74,4.32-1.75,17.83-.12,35.66-0.08,53.49-0.08h10.4Zm31.43,18.12,1.84,1.37c2.5-3.7,4.28-8.45,7.71-10.81s8.5-2.32,13.37-3.46c0-1.28-.1-2.92,0-4.54,0.19-2.63-1-3.48-3.53-3.46-11,.08-22-0.05-32.93.18-1.12,0-2.72,1.77-3.16,3-0.55,1.59-.13,3.52-0.13,6h16.77l-6.78,12.54,1.65,1a117.35,117.35,0,0,0,6.17-10.18c1.75-3.63.31-5.6-3.87-5.83-3-.16-6,0.08-9-0.17-0.75-.06-1.4-1.31-2.09-2,0.65-.56,1.3-1.61,2-1.61,10.6-.1,21.21-0.07,31.81-0.07l0.64,1.8a26.14,26.14,0,0,1-3.87,2c-2.89.94-6.72,0.78-8.61,2.65C322,530.51,319.92,534.95,317.32,538.89ZM156.51,592.51v8H195.4v-8.22c-4,0-7.59,0-11.22,0-2.69,0-3.89-1.13-3.91-3.88s-0.41-5.59-.73-9.62c-5,9-1.3,16.16,7,16.18A13.9,13.9,0,0,1,190,595a16.23,16.23,0,0,1,3.27,1.71c-1.06.46-2.11,1.3-3.18,1.31-9.15.11-18.3,0.08-27.45,0a36,36,0,0,1-4.05-.46l-0.13-2.08c2.4-.18,4.81-0.48,7.21-0.52,7.48-.12,11-6.14,6.83-14.51-0.43,2.88-.92,4.52-0.87,6.14,0.15,4.64-2.2,6.18-6.51,5.89C162.34,592.36,159.55,592.51,156.51,592.51ZM159.28,525l-1-1.91c1.25-.73,2.48-2,3.75-2.09,7-.21,14,0.38,20.94-0.24,6.7-.6,11.52,1.17,14.74,7.23,0.75,1.41,2.49,2.29,3.78,3.42-3.61-9.66-9.42-15.14-20.51-13.57-7.93,1.13-16.15.22-24.34,0.22v9.47c3.42,0,6.55.18,9.66,0,4.13-.3,5.61,1.43,5.47,5.5-0.22,6.55-.06,13.12-0.06,19.68,1.4-.54,2.31-1.29,2.32-2.05,0.12-7.13.4-14.28-.14-21.37-0.12-1.54-3.19-3.59-5.22-4.06C165.67,524.45,162.41,525,159.28,525ZM300.9,580.13c-4.15,9.53-1.47,14.43,7.17,14.88,1.23,0.06,2.42.92,3.63,1.41-1.31.57-2.62,1.6-3.95,1.62-8.49.15-17,0-25.48,0.12a26.53,26.53,0,0,0-4.57.83l0.22,1.38H314v-7.58c-4.07-.61-8.94,0-11.12-2.07S301.46,583.77,300.9,580.13Zm-43.53,14.29c-3,3.84-20.59,3.87-24.23.82v6.82h24.23v-7.64Zm4.34-53.06,1.28-.87c-3.26-11.49-8.42-15.91-18.47-15.85-7.35.05-9,1.63-9,9.11a71.29,71.29,0,0,0,.64,7.17l2.36-.19c0-3-.34-6.14.14-9.1,0.26-1.59,1.66-3.84,3-4.26,7-2.16,11.52-.13,15.42,6.31ZM276.87,594c2.84,0.63,4.6-.32,4.94-4.37A111.61,111.61,0,0,0,282,572.2c-0.17-2.33-2.17-4.52-3.33-6.77l-1.24.35C279.44,575.15,281.62,584.52,276.87,594Zm-38.51-23.66-1.53-.26-1.68,10.08,2,0.34C239.89,577.52,237.9,573.71,238.36,570.33ZM220.45,589c0-5.51-3.81-9.66-8.09-9.88Z" transform="translate(-101.51 -479.94)"/></g></svg>