<svg id="Layer_1" data-name="Layer 1" xmlns="http://www.w3.org/2000/svg" viewBox="0 0 256.07 196"><defs><style>.cls-1{fill:#333;}</style></defs><title>lions</title><g id="csDvPO"><path class="cls-1" d="M937.36,400c-2.91,5.06-4.52,10.85-11,13.36s-18.74,1.14-24.35-3.29c-2.54-2-6-3.11-9.17-4-3.83-1-7.94-1.07-11.76-2.13-6.38-1.78-12.51-3.71-19.42-2.21-1.95.42-4.7-2.9-7.25-4.61-5.92,2.4-12.54,5-19,7.82-1,.45-1.86,2.09-2.16,3.34-1.4,5.75-4,10.54-10,13.44,1,0.84,1.74,1.43,2.47,2,4.06,3.18,6.79,7.06,5.35,12.47-1.51,5.64-8.06,10.37-13.5,10.88-6,.56-11.62,1.24-17.41-1.64-2.29-1.14-5.85.3-8.83,0.55-5.8.48-11-.46-14.27-6.25-5.44,3-10.69,5.8-15.88,8.7-2.3,1.28-2.75,2.81-.27,4.49,4.68,3.16,6.18,7.89,3.92,12.65s-5.45,9.72-12.18,9.52a11,11,0,0,0-3.19.91h-5c-7.29-3.25-9.29-9-8.7-16.62,0.39-5-.47-10.12-1.21-15.12-0.62-4.19.24-7.67,3.49-10.31,7.8-6.34,5.84-15.35,6.46-23.61,0.05-.71-1.64-1.89-2.73-2.28-11.69-4.22-18.44-12.52-20.86-24.6a49.12,49.12,0,0,0-2.36-8.12c-1.53-3.93-3.88-6.38-8.81-6.59-3.15-.14-6.74-2-9.17-4.22-8-7.22-7.86-7.4-19.17-9.92,8.35-7.79,17.11-13.5,28.4-12.32,3.43,0.36,6.68,3.75,9.71,6.14,2.51,2,4.33,4.82,6.87,6.72a34.53,34.53,0,0,1,13.09,20c1.47,5.92,4,11.11,10.44,12.78,1.68,0.44,4.37,0,5.53-1.1,4.64-4.52,10-7.29,16-9.69,4.18-1.67,7.47-5.75,10.88-9,1.5-1.45,2-3.9,3.46-5.43,2.64-2.78,2.64-5.41,1.47-9-2.54-7.69,4.07-12.43,6.79-18.42,1.45-3.2,3.13-6.3,4.71-9.44,2.09-4.16,2.88-8.33-.83-12.81,2.45-.5,4.19-0.5,5.59-1.2,3.75-1.88,8.11-3.33,10.85-6.25,6.32-6.74,13.76-10.26,23.52-10.72l-3.8-3.44c2.83-1,5.29-2.6,7.84-2.75,6-.35,6.87-3.93,6.55-8.71h1c7.76,6.4,16.34,11.44,26.13,13.76,8.65,2,13.08,9.73,20.14,13.8a8.06,8.06,0,0,1,.87,1.19,55.82,55.82,0,0,0,5.68,5.11c5.89,4.13,11.91,8.07,17.31,11.7l-9.69,13.31c5.33,1.17,9.55,2.42,13.86,3,6.23,0.77,11,3.32,13.7,9.17v4c-0.39,1.4-.84,2.78-1.15,4.2-1.19,5.32-8.07,12.7-12.58,12.85a65.72,65.72,0,0,1-14.34-.63c-4.1-.79-5.76.57-6.88,4.68,6.74,3.08,13.17,7.39,20.18,8.84,7.66,1.58,12.1,5.29,14.77,12.07v3Zm-33.74-32.65c5.08,0.24,9.22-.41,12.73.78,7,2.39,10.8-1.19,14.61-6,2.63-3.28,3.71-11.67.71-13.11-5.51-2.64-11.58-4.11-17.45-6a2.31,2.31,0,0,0-1.84.62c-3.53,3.33-7,1.32-10.05.28L914,326.68c-1.73-1.51-3.58-3.16-5.46-4.77-5.52-4.75-14-5.77-17.17-13.57-0.35-.86-2-1.11-2.91-1.82-1.63-1.28-3.13-2.72-4.73-4s-2.91-2.84-4.65-3.6c-9.21-4-18.52-7.87-27.79-11.77l-0.88,3.37-9.28,1.36L846,296.4c-3.2.85-5.66,1.44-8.08,2.15-5.33,1.57-11.36,2.12-15.79,5.07-6.18,4.12-10.42,11.17-19.11,11.2,0.77,2.27,2.18,4.37,1.64,5.2-3.5,5.37-2.06,12.68-7.69,17.36-5.06,4.21-5.86,11-5.5,17,0.2,3.29.7,5.65-1.58,8.32C788,365,787,368.14,785,370.21c-3.69,3.7-7.4,8.13-12,10-6.37,2.55-11.84,5.7-16.61,10.56-1.15,1.17-3.82,1.67-5.56,1.31-9-1.85-13.06-8.48-15.18-16.7a29.29,29.29,0,0,0-13-18.23,18.12,18.12,0,0,1-5.41-5.88c-2.16-3.58-4.93-6-9.12-6-7.57-.09-13.89,3.14-21.08,8.3,7.32,0.43,11.3,3.69,15,8,1.82,2.13,5.53,4.05,8.16,3.8,6.27-.6,8.87,3.15,10.84,7.58,1.67,3.75,2.41,7.93,3.48,11.94,2.49,9.32,8,16,17.17,19.33,2.14,0.79,4.3,1.54,6.55,2.34-0.37,5.7-.26,11.25-1.22,16.61-0.67,3.77-2,8-4.46,10.73-3.69,4-6.91,7.2-3.42,12.86,0.61,1,.31,2.61.29,3.93-0.05,4.5-.31,9-0.21,13.49,0.12,5.58,3.64,8.55,9.08,8,1.82-.2,4.15.26,5.35-0.7,3-2.45,6.4-5.13,8.07-8.49s-0.68-6.2-4.21-7.88c-2.88-1.36-3-6-.24-8.12a32.61,32.61,0,0,1,7.24-4.37c8.12-3.33,14.17-8.57,17.17-17a6.38,6.38,0,0,1,1.16-1.52c5,2.44.23,4.07-.22,6-0.7,3-2.41,6.73-1.33,9,0.91,1.95,5.11,3,8,3.25,4.1,0.42,9.11-1.71,12.28,0,5.71,3,11,1.07,16.46,1.15,3,0,9.37-5.51,9.78-8.76,0.55-4.41-2.13-7.51-5.83-8.88-2.37-.88-5.4-0.08-8.12.13-1.9.15-3.77,0.58-5.66,0.88l-0.49-1.66c2.39-1.39,4.61-3.42,7.19-4.06,10-2.5,15.57-8.45,15.49-17.88l25.2-10.68c0.71,0.66,2.25,1.46,2.81,2.7,2.11,4.69,5.48,3.63,9.18,2.62a12.35,12.35,0,0,1,5.61,0c6.3,1.34,12.56,2.89,18.82,4.45,3.5,0.87,7.68,1,10.29,3.06,7.61,6,15.27,8.4,24.35,3.77,3.52-1.79,7.7-8.71,7-12.13-0.94-4.48-5.86-8-11.18-8.15a8.43,8.43,0,0,1-3.35-.44q-5.7-2.73-11.23-5.78c-3.58-2-7.06-4.13-10.84-6.36Z" transform="translate(-681.29 -280.01)"/><path class="cls-1" d="M784.82,437.86c-1.31-6.53,12.05-11.7.25-17.83,8.43-9.76,19.5-14.37,29.84-20.66-2.62.71-5.3,1.27-7.85,2.18a65.62,65.62,0,0,0-7.77,3.38,70,70,0,0,1-7.9,3.92l4.21-4.58-1.17-1.3c-3.42,3.24-7.38,6.08-10.12,9.81-3.32,4.52-5.83,9.69-8.29,14.76a18.53,18.53,0,0,1-9.83,9.36,68.46,68.46,0,0,0-10,5.59c-5.19,3.37-6.55,8-4.19,13.83,0.36,0.88,1.46,1.46,2.22,2.18l3.68,3.43a41,41,0,0,1-5.06,4.86c-1.1.77-2.85,0.62-4.31,0.87-3.32.56-4.85-.59-5-4.22-0.29-7.06-1.14-14.09-1.43-21.15a5.78,5.78,0,0,1,2.22-4c4.59-3.55,6.45-8.51,7.09-13.85,0.82-6.9,1-13.88,1.47-21.08-3.23-1-6.4-1.93-9.48-3.06-8.14-3-13-8.66-14.87-17.27-1.57-7.3-3.14-14.9-9.86-19.53-2.1-1.45-5.11-1.5-7.61-2.45a43,43,0,0,1-8.28-3.78c-1.71-1.11-2.78-3.2-5.12-6l12.15,1.58-3.9-3.14c4.37-.49,5.88.52,7.92,4.37a13.17,13.17,0,0,0,4.58,5.33A26.92,26.92,0,0,1,732,377.54c2.52,10.57,8.93,17.34,19.81,19.1a8.48,8.48,0,0,0,6.45-1.9,44.7,44.7,0,0,1,16-10.46c5-1.93,9.55-6.07,13.13-10.23,4.51-5.23,7.82-11.48,11.87-17.62l-3.28-2.18c2.32-2.71,6.94-5.17-.2-8.75,3.32-3.8,6.37-7.41,9.57-10.89,1.34-1.46,3.12-2.52,4.46-4,2.94-3.21,2.47-4.79-1.76-6.69l2.9-6.79L824.67,310,823,308.12c7.46-7.86,17.51-4,27.05-5.38l-1.66-2.7,3.35-3.42c3.76-3.26,7.57-1.13,11.68,1,3.81,1.93,8.18,2.72,12.1,4.46,2,0.87,3.51,2.7,5.18,4.17,0.83,0.73,1.37,2,2.3,2.36,3.94,1.65,7.24,3.74,9.06,8,0.6,1.39,2.78,2.18,4.32,3.08,4,2.32,8,4.55,12.08,6.84l-7.73,13.1c-1.71-5.32-4.42-6-10.24-3.91-3.71,1.34-3.89,3.67-2.55,6.68,1.5,3.35,3,3.5,7.87.85a21.72,21.72,0,0,1,1.14,2.7,14.71,14.71,0,0,1,.34,2.37c3.3,0.48,6.16.89,9,1.32,1.12,0.17,2.83.94,3.26,0.49,4.31-4.52,8.92-.65,13.3-0.55,6,0.14,8.19,5.09,4.43,10-2.29,3-4.38,6.44-9.6,4.4a30.26,30.26,0,0,0-11.94-1.77,9.21,9.21,0,0,0-6.26,3.79c-5.92,8.92-13.78,15.77-22.24,22a60.25,60.25,0,0,1-6.79,4.17c-3.86,2.13-6.94,2.63-10.8-1.29-5.76-5.85-14.05-5.15-21.65-5.46a31.25,31.25,0,0,0-9.31,1.28l20.65,3.16c-7.94,5.8-15.29,8.47-23.84,8.05,0.12,1.52.16,2.31,0.26,3.09,1.06,8.22-1.77,12.47-10.41,15.61s-12.12,6-14.58,12.27c4.87,1.43,9.44,3.53,14.71,1.13,3.84-1.74,6.76-.49,8.19,3.94-5.65,6.22-12.12,7.17-20,4.41-3.57-1.25-7.9-.35-11.88-0.4C789.56,437.84,787.28,437.86,784.82,437.86Zm87.09-79.48c-4.79-10.46-21.72-14.24-29.46-7.39,10.2,0.53,23-4.14,25.32,13,8.38-2.66,16.68-5.77,24.07-11.52-7.3-5.71-10.82-4.92-15.06,2.36C875.93,356.33,873.82,357.06,871.92,358.38Zm-20.82-17.16a24.54,24.54,0,0,0-17.4,0c-9.08,3.48-18.12,7.09-27.16,10.67a2.42,2.42,0,0,0-.41,1c6.76,2.81,13.23,1.3,19.16-1.89C833.46,346.58,841.15,341.17,851.09,341.22Zm10.81-1c-7.45-12.46-27-15-33.51-5.25C840.07,331.45,850.86,332.62,861.9,340.22ZM881,317.41l-0.18,1.45c2.87,0.08,5.05,5.86,8.39,2l0.29-2.35Z" transform="translate(-681.29 -280.01)"/><path class="cls-1" d="M894,380.36c6.28,2.78,12.14,5.35,18,8a6.77,6.77,0,0,1,2.84,1.84c1.82,2.67,4.19,3.51,7.29,3.09,3.42-.46,6.71,1.12,6.67,4.3,0,2.46-2.32,5.82-4.57,7.16-7,4.19-13,2.09-19.47-3-3.77-3-10-2.86-15.1-4-4.32-1-8.69-1.71-14-2.74Z" transform="translate(-681.29 -280.01)"/></g></svg>