<svg id="Layer_1" data-name="Layer 1" xmlns="http://www.w3.org/2000/svg" viewBox="0 0 70.9 56.99"><defs><style>.cls-1{fill:#333;}.cls-2{fill:#ccc;}</style></defs><title>live</title><path class="cls-1" d="M338.71,222.81c0,8.14-3.21,17.22-9.38,25.26a2.67,2.67,0,0,1-3.74.62,2.63,2.63,0,0,1-.47-3.86A37.29,37.29,0,0,0,331,234.19c4.48-13.17,2.69-25.43-5.48-36.72-0.64-.89-1.38-1.72-1.14-2.93a2.53,2.53,0,0,1,1.94-2.09,2.64,2.64,0,0,1,2.87,1.06,44.52,44.52,0,0,1,7.18,13.27A47.67,47.67,0,0,1,338.71,222.81Z" transform="translate(-267.81 -192.36)"/><path class="cls-1" d="M329,220.83a34.22,34.22,0,0,1-6.45,20.08,2.7,2.7,0,0,1-3.86.87,2.65,2.65,0,0,1-.49-3.93,29.18,29.18,0,0,0,.06-34,4.13,4.13,0,0,1-.75-2.1,2.35,2.35,0,0,1,1.78-2.36,2.52,2.52,0,0,1,3,1,33.6,33.6,0,0,1,5,9.53A34.27,34.27,0,0,1,329,220.83Z" transform="translate(-267.81 -192.36)"/><path class="cls-1" d="M318.72,220.82a24.94,24.94,0,0,1-3.44,12.25c-1,1.66-2.51,2.18-3.91,1.34s-1.62-2.38-.7-4a18.44,18.44,0,0,0,.33-18.56c-0.22-.42-0.51-0.8-0.7-1.23a2.65,2.65,0,0,1,1-3.52,2.61,2.61,0,0,1,3.6,1,23,23,0,0,1,3.37,8.83C318.51,218.18,318.58,219.5,318.72,220.82Z" transform="translate(-267.81 -192.36)"/><path class="cls-1" d="M267.81,223c0,8.14,3.21,17.22,9.38,25.26a2.67,2.67,0,0,0,3.74.62,2.63,2.63,0,0,0,.47-3.86,37.29,37.29,0,0,1-5.91-10.65c-4.48-13.17-2.69-25.43,5.48-36.72,0.64-.89,1.38-1.72,1.14-2.93a2.53,2.53,0,0,0-1.94-2.09,2.64,2.64,0,0,0-2.87,1.06,44.52,44.52,0,0,0-7.18,13.27A47.67,47.67,0,0,0,267.81,223Z" transform="translate(-267.81 -192.36)"/><path class="cls-1" d="M277.52,221A34.22,34.22,0,0,0,284,241.05a2.7,2.7,0,0,0,3.86.87,2.65,2.65,0,0,0,.49-3.93,29.18,29.18,0,0,1-.06-34,4.13,4.13,0,0,0,.75-2.1,2.35,2.35,0,0,0-1.78-2.36,2.52,2.52,0,0,0-3,1,33.6,33.6,0,0,0-5,9.53A34.27,34.27,0,0,0,277.52,221Z" transform="translate(-267.81 -192.36)"/><path class="cls-1" d="M287.8,221a24.94,24.94,0,0,0,3.44,12.25c1,1.66,2.51,2.18,3.91,1.34s1.62-2.38.7-4a18.44,18.44,0,0,1-.33-18.56c0.22-.42.51-0.8,0.7-1.23a2.65,2.65,0,0,0-1-3.52,2.61,2.61,0,0,0-3.6,1,23,23,0,0,0-3.37,8.83C288,218.32,287.93,219.65,287.8,221Z" transform="translate(-267.81 -192.36)"/><path class="cls-2" d="M319,211.88c-0.09-2.45-7-10.63-15.67-10.63s-15.76,7.93-15.67,10.63c0.08,2.46,7,10.63,15.67,10.63S319.1,214.1,319,211.88Z" transform="translate(-267.81 -192.36)"/><rect class="cls-1" x="29.46" y="16.3" width="2.5" height="7.31" rx="1.25" ry="1.25"/><rect class="cls-1" x="34.09" y="16.24" width="2.5" height="7.31" rx="1.25" ry="1.25"/><rect class="cls-1" x="38.52" y="16.3" width="2.5" height="7.31" rx="1.25" ry="1.25"/><rect class="cls-1" x="22.52" y="36.74" width="26.06" height="13.75"/><path class="cls-1" d="M308.69,229.12H297.15v-3.81a22.47,22.47,0,0,0,5.72,1.38,25.26,25.26,0,0,0,5.81-1.37v3.81Z" transform="translate(-267.81 -192.36)"/><rect class="cls-2" x="28.71" y="40.55" width="12.88" height="5.81"/></svg>