<svg id="Layer_1" data-name="Layer 1" xmlns="http://www.w3.org/2000/svg" viewBox="0 0 260.59 169.09"><defs><style>.cls-1{fill:#333;}</style></defs><title>packers</title><g id="aiWqOz"><path class="cls-1" d="M1103.46,201.16c-40.29-.9-72.54-7.54-101.22-26.8-9.62-6.46-18.08-14.19-24.57-23.9-15.56-23.28-14.75-48.83,2.35-71,11.6-15.06,26.78-25.62,44.17-32.56,51.64-20.62,103-20,153.55,3.9a96.08,96.08,0,0,1,36.32,29.14c19.45,25.87,17.1,56.71-6.23,80.71-18.65,19.19-42,29.78-67.7,35.26C1126,198.89,1111.54,200,1103.46,201.16ZM1208.84,94c-2.45-3.48-4-6-5.86-8.26-9.41-11.6-21.28-20.14-34.61-26.57-35.12-17-71.86-19.8-109.59-11.43C1035,53,1013.17,62.45,995.39,79.68c-23.3,22.57-24.18,51.56-1.38,74.58a104.71,104.71,0,0,0,25.68,18.66c29.16,15.22,60.79,19.22,93.16,16.81,25.37-1.89,49.46-8.88,70.85-23.26,16.68-11.22,28.8-25.64,30.92-46.63,0.69-6.8.11-7.61-6.49-7.61h-133v21.7h79a9.89,9.89,0,0,1-.64,1.66c-0.4.53-.86,1-1.3,1.52-12.36,14.14-28.24,21.42-46.64,23.3-20.25,2.06-40,.39-58-10.28-27.69-16.46-29.22-48.82-3.4-68,12.86-9.56,27.72-13.72,43.39-14.73,25.79-1.66,48.93,4.46,66.78,24.67a5.77,5.77,0,0,0,3.74,1.91C1174.49,94.06,1191,94,1208.84,94Z" transform="translate(-966.57 -32.07)"/></g></svg>