<svg id="Layer_1" data-name="Layer 1" xmlns="http://www.w3.org/2000/svg" viewBox="0 0 163.07 105.65"><defs><style>.cls-1{fill:#333;}</style></defs><title>panthers</title><g id="lhSnI5"><path class="cls-1" d="M109.8,125.92A66.06,66.06,0,0,0,86.3,148.3c-1.84,2.88-3.75,3.89-7.23,3.8-8.15-.2-16.31.27-24.46,0.45-1.14,0-2.29,0-3.44-.05a16.37,16.37,0,0,1,1.17-3.64c8.93-14.77,20.9-26.78,34.6-37,9.18-6.87,18.9-13,28.12-19.3-4.32-1.64-7.15-5.62-8.95-10.13-1.58-4,1.81-3,3.7-2.63,7.86,1.32,15.52,1.29,23-2.06a67.46,67.46,0,0,1,11.45-4.44c10.19-2.47,20-.18,28.5,5.47l-8.65-5.87c9.55,0.53,19,.78,27,6.94,1.47,1.13,3.55,1.54,5.41,2.09,3.28,1,6.61,1.77,9.63,2.57l-0.74-3.61c2.79-.2,5.58-0.44,8.37-0.49a4.85,4.85,0,0,1,.43,2.56c-1,4.72-4.29,7.05-9.27,7a41.36,41.36,0,0,0-8.39.7c-1.6.32-3.5,1.4-.64,3.15,3.9,2.4,5,6,3.85,10.43h1.39l0.56-8.75c3.52,2,5.87,5.22,4.2,9.22-3.56,8.54-7.9,16.74-11.92,25.08-1.65,3.42-3.28,6.85-4.56,9.51L183,118.78h-0.48c0.64,3.09,1.24,6.19,1.94,9.26a12.6,12.6,0,0,0,1,2.28c3.89,8.57,3,14.77-3,16.77-7.57,2.54-16.22,2.05-18.91-7.85a13.19,13.19,0,0,0-.57-1.42c0.29,7.7,3.59,13.41,9.34,15.17,6.5,2,12.19.6,16.34-5.53a13,13,0,0,1-10.29,12.67c-3.49.86-3.58,1.82-1.57,4.46a94.17,94.17,0,0,1,5.6,8.85c1.82,3,1.66,4.55-2.65,4.5-14.76-.19-28.47-4.61-42.14-9.58s-27.57-9.72-41.48-14.23c-3.33-1.08-2.12-2.7-1.51-4.44A63.41,63.41,0,0,1,109.8,125.92Zm58-1.88c2.31-3.5,4-5.89,5.52-8.41,2.37-4,7.18-5.77,12.3-4.21,4.8,1.46,1.86,5.16,2.11,7.93,0,0.53,0,1.07,0,1.6,2.18-2.38,3.33-5.06,4.59-7.68,1.53-3.19,0-4.87-3-5C183.9,108,178.44,108,173,108.13c-3.27.1-4.89,1.63-4.39,5.43C169,116.42,168.19,119.44,167.75,124Zm-44-7.55c0,12,7.53,19.84,19.51,20.7C134.16,132.73,127.72,126.37,123.75,116.49Zm49.77,20.06c-0.41.8-.93,1.82-1.45,2.83-2.6,5-2.39,5.36,3.42,5.43a27.05,27.05,0,0,0,3.49-.14c5.58-.65,7.31-3.32,5.75-9.4-1,4.57-3.4,7.55-8,6.38C175.36,141.32,174.64,138.45,173.52,136.55Zm3.56-45.63c7.76,8,7.76,8,14,1.09Zm-7.87-4.16,0.46-1.85c-4-1-8-2.15-12-3-0.87-.18-1.94.64-2.92,1,1,1,1.95,2.63,3.11,2.83C161.59,86.38,165.42,86.47,169.21,86.76Zm-8,7.38,0.06-1.33-23.6-1.06V92Zm-22.41,3.79v0.39h17.89l0-1.18Z" transform="translate(-51.17 -72.29)"/></g></svg>