<svg id="Layer_1" data-name="Layer 1" xmlns="http://www.w3.org/2000/svg" viewBox="0 0 153.27 71.23"><defs><style>.cls-1{fill:#333;}</style></defs><title>patriots</title><path class="cls-1" d="M348.58,79.57l-1.75-7.5,13.61-2.39,0.18-1c-2.27-.4-4.52-1-6.8-1.15-2.48-.2-5,0-8,0l-2.29-8.61c20.1-4.43,39.55-4.91,59.12,1,7,2.1,14.52,2.22,22.34,3.32-2.39,8.52-4.74,18.46-8.18,28-0.89,2.48-5.16,3.73-8,5.64,0.38,2.15.63,4.29,1.17,6.36,0.68,2.6.56,4.31-1.95,6.38-1.65,1.36-2.21,5.11-1.87,7.6,0.62,4.58-1.2,7.22-4.92,9.56-16.24-19.13-36-32.24-60.72-37.27l0.11-1.31,29.58-6.8C363.79,77.64,356.2,78.82,348.58,79.57Zm47.1,12.71c-6.42-2.44-10.51-1.34-13.34,3.57,9.72,8.58,9.72,8.58,9.5,11.19-5.92-5.73-8-6.44-11.78-4.11l23.24,21.14v-9.15l1.87-2.2h-5.4l-0.22-.77,4.81-2.17-2.43-3.32,6-.68-2.81-14.19c-4.29,5.55-8.68,7.59-15.08,5.18Zm0.75-10.9c6.13-3,10.72-.85,15.05,5.58l-1.16-9,4.36-1.92-8-7.81c-1.59,4.65-6.08,2.48-10.66,2.11l4.5,5.24Z" transform="translate(-271.74 -55.52)"/><path class="cls-1" d="M271.74,82.2L341.13,59l2.61,8.84C319.08,73.08,296.06,84.67,271.74,82.2Z" transform="translate(-271.74 -55.52)"/><path class="cls-1" d="M306.54,85.25L345,72.76l2.19,8.31-40.75,5.28Z" transform="translate(-271.74 -55.52)"/></svg>