<svg id="Layer_1" data-name="Layer 1" xmlns="http://www.w3.org/2000/svg" viewBox="0 0 37.27 46.82"><defs><style>.cls-1{fill:#333;}.cls-2{font-size:3.9px;font-family:Helvetica;font-weight:700;}.cls-2,.cls-4{fill:#ccc;}.cls-3{fill:none;stroke:#231f20;stroke-miterlimit:10;}</style></defs><title>playbook</title><rect class="cls-1" x="3.76" width="33.51" height="46.82" rx="3.68" ry="3.68"/><rect class="cls-1" x="0.04" y="41.17" width="7.7" height="1.93" rx="0.96" ry="0.96"/><rect class="cls-1" x="0.04" y="36.61" width="7.7" height="1.93" rx="0.96" ry="0.96"/><rect class="cls-1" x="0.04" y="31.84" width="7.7" height="1.93" rx="0.96" ry="0.96"/><rect class="cls-1" x="0.04" y="27.04" width="7.7" height="1.93" rx="0.96" ry="0.96"/><rect class="cls-1" x="0.22" y="22.45" width="7.7" height="1.93" rx="0.96" ry="0.96"/><rect class="cls-1" y="17.97" width="7.7" height="1.93" rx="0.96" ry="0.96"/><rect class="cls-1" y="13.27" width="7.7" height="1.93" rx="0.96" ry="0.96"/><rect class="cls-1" x="0.05" y="8.52" width="7.7" height="1.93" rx="0.96" ry="0.96"/><rect class="cls-1" x="0.05" y="3.81" width="7.7" height="1.93" rx="0.96" ry="0.96"/><text class="cls-2" transform="translate(12.96 17.3)">x</text><text class="cls-2" transform="translate(18.92 17.73)">x</text><text class="cls-2" transform="translate(16.32 14.37)">x</text><text class="cls-2" transform="translate(22.29 14.37)">x</text><text class="cls-2" transform="translate(29.88 16.54)">x</text><text class="cls-2" transform="translate(24.35 17.63)">x</text><text class="cls-2" transform="translate(7.64 20.77)">o</text><text class="cls-2" transform="translate(32.7 21.42)">o</text><text class="cls-2" transform="translate(18.82 22.18)">o</text><text class="cls-2" transform="translate(15.56 20.66)">o</text><text class="cls-2" transform="translate(23.15 20.23)">o</text><text class="cls-2" transform="translate(21.64 25.98)">o</text><text class="cls-2" transform="translate(16.97 26.52)">o</text><path class="cls-3" d="M211.4,49.33" transform="translate(-202.77 -30.76)"/><path class="cls-3" d="M216.76,43.33" transform="translate(-202.77 -30.76)"/><path class="cls-3" d="M211.51,43.38" transform="translate(-202.77 -30.76)"/><path class="cls-4" d="M215.09,44.4a1.2,1.2,0,0,1,.29-0.43,2.4,2.4,0,0,1,1.14-.62l0,0.3-0.27-.12a13,13,0,0,1-1.81-1,13,13,0,0,1,1.94.69l0.27,0.12,0.45,0.21-0.49.09a3.29,3.29,0,0,0-1.12.41A1.55,1.55,0,0,0,215.09,44.4Z" transform="translate(-202.77 -30.76)"/><path class="cls-4" d="M214,43.65c-0.42,0-1-.09-1.57-0.12H212a2,2,0,0,1-.31,0c0,0.23-.05.67-0.07,1-0.09,1.48-.12,3.14-0.11,4.72a29.09,29.09,0,0,1-.21-4.73,8.85,8.85,0,0,1,.08-1.13,0.33,0.33,0,0,1,.19-0.18,0.55,0.55,0,0,1,.18,0h0.74c0.63,0,1.16.09,1.58,0.13a13.33,13.33,0,0,0,1.9,0c0.29,0,.33,0,0.34.07s0,0.1-.31.18A6.2,6.2,0,0,1,214,43.65Z" transform="translate(-202.77 -30.76)"/><path class="cls-4" d="M231.14,39.5c0.65,0.24,1.48.54,2.44,0.87l1.53,0.52,0.82,0.28a1.4,1.4,0,0,1,.5.24,0.87,0.87,0,0,1,.23.59,44.13,44.13,0,0,1,.05,7.81c-0.16-2.59-.24-5.33-0.58-7.74a0.46,0.46,0,0,0-.06-0.25,1.3,1.3,0,0,0-.31-0.12l-0.83-.27-1.54-.52c-1-.33-1.8-0.64-2.46-0.88-3.3-1.27-3.4-1.56-3.35-1.68S227.88,38.24,231.14,39.5Z" transform="translate(-202.77 -30.76)"/><path class="cls-4" d="M229.64,38.23c-0.26.06-.59,0.12-1,0.17l-0.62.05h-0.46a0.2,0.2,0,0,0,.12-0.09v0h0l0-.11h0v0.06h0s0,0.1,0-.09h0v0.14l0,0.16,0.07,0.33a6.38,6.38,0,0,0,.21.66,3.09,3.09,0,0,1,.41,1.41,5,5,0,0,0-.78-1.23,4.35,4.35,0,0,1-.34-0.68c0-.12-0.09-0.24-0.12-0.35l0-.18,0-.09V38.36h0v-0.1h0V38.17h0l0-.11h0l0,0a0.41,0.41,0,0,1,.27-0.16l0.2,0,0.31,0,0.58-.06c0.36,0,.68-0.1.92-0.16,1.22-.3,1.33-0.26,1.4-0.08S231,37.91,229.64,38.23Z" transform="translate(-202.77 -30.76)"/></svg>