<svg id="Layer_1" data-name="Layer 1" xmlns="http://www.w3.org/2000/svg" viewBox="0 0 259.98 187.27"><defs><style>.cls-1{fill:#333;}</style></defs><title>rams</title><g id="dLF61n"><path class="cls-1" d="M1095.1,773.55c5.28-13.46,4.78-15-7.34-24l-10.31,10.75c-17.6-22.49-39.13-37.09-63.62-47.77C989.68,702,964.2,697.54,938,696l-0.42-1.56c9.47-6.93,18.65-14.32,28.47-20.72,29.94-19.53,62-33.94,97.63-39.63a6.91,6.91,0,0,0,3.89-2.7c16.85-22.88,40-30.27,67.41-28.39,30.12,2.06,55.43,26.6,61,53.45,3.45,16.48,1.33,31.82-9.28,45.26a37.15,37.15,0,0,1-9.85,8.29c-3,1.81-3.72,3.78-3.25,6.89,0.45,3,.61,5.95.9,8.92,0.47,4.8-.87,8.68-4.84,11.86-1.61,1.29-2.34,3.83-3.14,5.94-4.52,11.93-8.72,24-13.56,35.77-1,2.32-4,4.46-6.5,5.34-6.09,2.12-12.44,3.51-18.73,5a6.48,6.48,0,0,1-4.23-.2C1114.1,784.37,1104.74,779,1095.1,773.55Zm15.3-2.16,6.62,3.46,1.68-.71-3.16-15.74,8.79-4.73c5.13,8.57,1.61,16.28-2,25.65,3.39-.48,6.22-0.09,7.83-1.3,2.5-1.88,4.19-4.85,6.15-7.41a1.39,1.39,0,0,0-.46-1.17c-3.79-.74-2.12-3.2-1.13-4.71,0.57-.87,3.34-1.53,3.67-1.11,1.13,1.4,2.31,3.38,2.18,5-0.18,2.36-1.51,4.63-2.4,7.08,3.36,0.47,5.82-.29,7.06-3.84,3.46-9.86,7.15-19.64,10.57-29.52,1.63-4.72.6-10.48,5.68-13.83,0.49-.32.48-1.53,0.55-2.34,0.89-10.38-7.83-28.2-17-34.26,1.08,1.79,2,3.14,2.75,4.55,4.79,8.53,7.92,17.59,8.08,27.45,0,1.79-1,3.62-1.68,5.41s-1.8,3.72-2.18,5.68c-1.52,7.91-2.82,15.87-4.36,24.72-3.81-4-6.35-7.09-9.31-9.7-11.31-10-16.77-10-28.05,0a3.42,3.42,0,0,0-1.1,1,8.77,8.77,0,0,0-.81,3.48C1108.82,759.67,1109.55,764.82,1110.39,771.39ZM1080.25,624c19.91-10.72,40.62-13.88,62.09-6.6,22,7.47,34.71,23.67,39.91,46.13,2.11-19.66-13.72-42.39-35.68-50.5C1119.62,603,1096,606.83,1080.25,624Zm-20.34,21.12c-9.37,18.94-7.94,36.5,2.07,53.21,9,15.08,22.94,21.68,40.54,19.68,7.21-.82,13.47-3.79,18.09-9.67a2,2,0,0,0-1.75.31c-14.6,11-38.84,4.79-49-9.09-7.41-10.11-11.79-21.16-11.65-33.71C1058.27,659.26,1059.24,652.72,1059.91,645.08Zm84.82,72.24c-1.86,3.08-3.86,5.54-4.93,8.36-1.91,5,2.28,9.76,7,8.3-5.55-4.3-5.47-6.11.7-10.76Zm-25,42.89,1.57,10C1124.1,764,1123.48,760.4,1119.72,760.21Z" transform="translate(-937.6 -602.72)"/></g></svg>