<svg id="Layer_1" data-name="Layer 1" xmlns="http://www.w3.org/2000/svg" viewBox="0 0 216.03 213.67"><defs><style>.cls-1{fill:#333;}.cls-2{fill:none;stroke:#333;stroke-miterlimit:10;stroke-width:11px;}</style></defs><title>redskins</title><g id="_7ddUWM" data-name="7ddUWM"><path class="cls-1" d="M672.35,62.33c6.1-7.16,13.66-12.46,23-13.53a134.77,134.77,0,0,1,26.24-.07c5.68,0.46,10.4,3.83,14,8.67,4.44,6,9.32,11.59,14,17.37,0.73,0.9,2.1,2,2,2.78-1.5,9.11,7.08,13.87,9.16,21.54,1.94,7.14,1.75,8.8-4.68,10.27-0.79,3.09-1.62,5.75-2.14,8.47-0.71,3.73-.66,7.7-1.95,11.2-0.8,2.17-3.22,4.78-5.34,5.23-5.61,1.2-11.46,1.35-17.73,2l-3.76,28.32c-5.24-1.42-11.07-2-15.93-4.49-14.58-7.45-29.39-12.51-46.06-8,3.74-5.52,7.89-10.24,10.38-15.73a18.17,18.17,0,0,0-1.38-17.73L649.55,145.8c0-5.75,0-10.63,0-15.52,0-4.4-.25-8.85.31-13.19s2.06-8.35,3-12.55a21.93,21.93,0,0,0,.47-8.91l-14.62,13.49c1.19-8.36,3.07-16.09,8.21-22.74l-2.21,7.32c9.35-.45,15.5-6.11,22-11.28L656.46,94.63l1,0.68,2.62-.51c-8.9,16.54-7.84,14.32-6.34,18.41l3.46-3.09-0.78,13.55c8.3,0.61,11.14-3.92,11.7-11.52l1.36,3.28c8.42-5,3.39-13.07,4.45-20.73l2.39,5.63,1,0L680,87.09l2,1.59c0-3.47.17-6.33,0-9.16-0.47-6.59-4-13.12-.8-21.07Zm34.25,90.41,13.51,8.7c-1-4.64-8.67-5.34-5.22-11.57-4.44,1.47-7.32-1.93-6.65-6.48l-4.39-.84-1.7,2.47,9.39,7-0.73,1.32Zm14.34-91.49c-6.48-6.53-9.59-7.7-14.64-5.2l4.66,1-5.85.79v0.63Z" transform="translate(-570.28 -27.88)"/><path class="cls-1" d="M618.62,59.73L620.05,65l6-3.61L621.2,75H610.48l-0.06,1.68,9.43,0.74C618.54,81.75,617,86,616,90.42s-0.7,8.58,3.44,12.08a13.46,13.46,0,0,1,4.35,8.15c1.12,11.48,2.84,23.13,1.91,34.52a152.92,152.92,0,0,0,2.55,42.37c1.72,8.75,2,17.79,2.89,26.9l-2.66-2.49L631,230.1l-4.12-2.28-4.5,13.73-10.52-11.79-1.3,2.52c-6.54-7.57-11.33-16-11.93-26.67l-2.91,1-1.53-11.09-2,3.52-2.06-3.82c-2.42,5.25.57,11.84-3.81,15.53l-11.9,17.39c-0.91-7.61-1.61-15.09-2.71-22.51-4.55-30.63,2.14-59.18,16-86.33,6.21-12.13,13-23.95,19.39-36a7.72,7.72,0,0,0,.66-5.23c-1.17-4,2.11-5.92,3.67-8.51C613.61,66,616.33,62.83,618.62,59.73Zm2.51,54.43,1.31-.87c-1.56-3.4-2.32-7.65-4.85-10-4.17-3.87-4-7.95-3.12-12.64,0.32-1.63.49-3.29,0.7-4.94s0.36-3.15.54-4.73l-1.85-.22L603.72,130.7l-0.5,0L608,99.45l-1.49-.77-7.25,11.95,1.1,0.78,1.81-1.17-6.74,28.13,5-.78c-8,8.26-5.65,18.07-6.64,27.21l5.43-4.66c-3.3,7.66-8.1,13.85-4.84,21.66l3-1.08c-3.92,6.06-3.3,12.68-.39,16.75,3.14,4.39,3.83,8.82,5.19,13.45a91.2,91.2,0,0,0,4.26,11.57c0.4,0.9,2.27,1.14,4.38,2.09l10.28,11.32,1.41-.3,1.63-15.23,4.2,3.46c-0.88-3.31-1.43-5.48-2-7.63s-1.78-4.17-1.6-6.15c0.15-1.68,2.68-3.19,2.76-4.83,0.17-3.78.18-7.84-1-11.35-1.43-4.22-4.18-8-6.73-12.64l5.18,4c-0.81-9.33-.19-18.21-6.41-25.39l4,3.49c3.45-10.94-4.32-17.26-8.64-25.11l9.72,8.33c1.19-6.48-2-11.62-1.36-17.47,0.59-5.37-2.35-11.12-3.6-16.2ZM575.89,218.74c7.5-3.91,5.37-11,6.31-17.14l1.66-.89,1.38,4.83c2.59-5.95-1.42-12.62,6.21-14.82v-5.13c-3,1.93-4.48-.16-5.49-2l-3.57,8.92-2.66-1.65-1.37,3.88-1.8,0c-0.08-2.38.2-4.86-.35-7.13-0.59-2.44-2-4.7-3-7l-1.79.5ZM612.07,85.52l-1.3-.46-4.45,11.76,2,0.68Z" transform="translate(-570.28 -27.88)"/><path class="cls-1" d="M674.81,71.78l-3.5,10.86-0.76-3.79-2.15,1.53-0.79-.6,6.27-8.5Z" transform="translate(-570.28 -27.88)"/><path class="cls-1" d="M603.07,163.56V135.27h0.56v28.19Z" transform="translate(-570.28 -27.88)"/></g><ellipse class="cls-2" cx="133.18" cy="77.23" rx="77.35" ry="71.73"/></svg>