<svg id="Layer_1" data-name="Layer 1" xmlns="http://www.w3.org/2000/svg" viewBox="0 0 195.85 237.31"><defs><style>.cls-1{fill:#333;}</style></defs><title>saints</title><g id="jMzbqd"><path class="cls-1" d="M176.17,156.17c-11.93-2.17-22.58-6.16-29.22-17.08-9-14.83-5.72-34.66,8.23-46.56,14.62-12.47,31.34-15.13,49.53-9.5,0.79,0.25,1.58.52,2.36,0.8s1.54,0.57,2.51.94l30.24-90.3,29.57,88.64c9.49-.9,18.82-2.77,28.09-2.47,20.33,0.65,37.87,17.25,40.05,36.63a33.48,33.48,0,0,1-23.19,36c-3.48,1.11-7,2-11,3.09-0.78-3.08-1.44-6.13-2.33-9.11-2.12-7-5.54-13-13.54-14.41-5.74-1-15.34,3.86-18.2,10.21-1.33,3-.23,7,0.92,11.38l3-5.77c5.59,5.06,10.8,8.82,14.78,13.59,7.69,9.22,8.8,21.41,3.28,30.23-6.32,10.08-16.22,11.84-27.09,10.92-1.31-.11-2.6-0.41-4.4-0.7-3.49,11.72-10.74,20.84-19.75,29.12-8.09-7.05-14.67-15-18.47-25-1.09-2.87-1.91-4-5.58-3.47-18.23,2.82-31.69-8.13-30.78-24.7,0.42-7.66,3.87-14.12,9.26-19.38,3.42-3.34,7.36-6.14,11.86-9.83l2.9,5,1.25-.66c0-3.66,1.29-8-.27-10.81a20.38,20.38,0,0,0-14.81-10.07c-5.41-.87-11.32,2.4-14.07,8.37C179.19,145.85,177.95,150.88,176.17,156.17Zm83.56,9.34c0.89-6.45,2.88-12.07,2-17.2-0.79-4.67.22-7.62,3-10.63a51.54,51.54,0,0,1,5.65-5.62c13.9-10.93,29.38-6.67,35.83,9.79,0.76,1.95,1.44,3.92,2.13,5.8,15.68-2.83,25.41-17.18,22.24-32.22-3.84-18.27-24.33-31.79-44-28.17-8,1.47-15.64,4.94-22.22,7.1C262.09,85.41,260,75.53,257,66c-3.92-12.17-8.85-24-13-36.13-1.8-5.29-2.67-10.9-3.72-15.35-4.39,13-9,26.57-13.61,40.16s-11,26.44-10,41.62c-2.09-1.16-3.8-2.15-5.54-3.08-16.16-8.56-32.13-8.91-47.71,1.38-13.68,9-18.67,25.87-11.58,39.32a25.46,25.46,0,0,0,19.75,14c0.86-2.57,1.45-4.65,2.24-6.65,4.21-10.6,12.34-16,22.8-14.76s16.68,8.29,22.07,16.39a2.26,2.26,0,0,1,.2,1.87c-3.22,7-1.36,13.29,2.83,19.94-2,1.14-4.35,3.46-5.44,3-4.29-1.93-8.19-4.76-13.45-8-2.8,3.91-7,8.17-9.27,13.28-5.29,11.91,1.7,23,14.73,23.69,5.49,0.29,11-.89,16.63-1.41,3.46,12.86,7.24,19.67,15.6,27.34,3.11-4.36,6.61-8.39,9.09-13s4.11-10,6.09-15c15.87,4.42,27,1.79,30.73-7.17,4.1-9.87-.76-21.7-11.42-27.78C264.78,169.64,263.86,169.9,259.72,165.5Z" transform="translate(-141.9 5.53)"/><path class="cls-1" d="M310.82,143.63c-1.52-3.06-2.71-6-4.35-8.65-8.1-13.07-22.67-16.25-35.33-7.52a52.94,52.94,0,0,0-9.48,8.79c-3.14,3.58-5.7,7.1-3,12.82,2.44,5.2-.62,10.32-4.09,14.57,5.21,10.15,11.23,10.26,21.53-.06,2.14,2.73,4.6,5.19,6.24,8.11,6.11,10.89.33,21.6-12.09,21.68-5.8,0-11.61-1.87-17.86-3-1.45,9.27-4.53,19.05-12.4,27-7.68-7.82-11-17.3-12.49-27.86-3.63,1.19-7,2.55-10.4,3.34-9.18,2.11-17.07-.29-20.11-5.85-3.66-6.7-1.75-14.55,5.26-21.54a3.54,3.54,0,1,1,.49-0.4c5.19,2.26,9.6,5.38,14.24,5.76,2.8,0.23,6-3.78,9.17-6.05-5.5-6.66-7.14-12.87-3.72-19.9a3.3,3.3,0,0,0-.26-2.68c-5.11-8.48-11.6-15.5-21.41-18.44-11.4-3.42-22.11,1.38-28.12,12.37-1.34,2.45-2.47,5-3.67,7.46-15-3.65-21.76-21.92-13.52-36s27.75-21.19,44.65-15.41C207.33,94.73,214,99,221,102.54c-0.23-1.71-.61-4-0.84-6.36-0.94-9.18,1.36-17.82,4.5-26.31,5-13.55,10-27.1,16-41.07,6.24,19.63,12.78,39.18,18.52,59,1.41,4.85.21,10.45,0.21,14.45,5.91-3,12.67-7.37,20-10,14.67-5.26,32.07-.35,41.54,10.73C333.33,117.33,328.27,138.18,310.82,143.63Zm-145-6.66c0.59-1,1.21-1.93,1.74-2.92,3.58-6.72,8.71-11.76,15.91-14.41,15.81-5.82,37.83,4.66,43.45,20.84,0.67,1.93.2,4.55-.48,6.61-1.64,5-1.29,9.42,2,13.67,0.89,1.16,1.86,3.06,1.51,4.22-3.26,10.71-15.16,14.31-24,7.43-0.63-.49-1.33-0.88-2.11-1.4-2.9,4-5.37,8.37-2.78,12.57,1.52,2.46,5.72,4.64,8.66,4.56,4.77-.13,9.61-1.86,14.17-3.6,2.9-1.11,5.32-3.46,8.41-5.56,0.29,10.83,1,20.84,7.62,29.93,6.84-9.08,7.19-19.21,7.66-30l5.88,4.07c5.19,3.6,10.75,6,17.26,5.31,8.09-.87,11.09-6,7.71-13.31-0.67-1.46-1.57-2.81-2.38-4.26-11.29,8.23-19.17,6.73-25.67-4.76-0.61-1.08-.62-3.38.11-4.19,4.36-4.85,4.25-10,2.45-15.86a10.11,10.11,0,0,1,.58-7,40.51,40.51,0,0,1,22.36-19.63,29.23,29.23,0,0,1,35.38,12.87c0.88,1.51,1.76,3,2.66,4.54,9.11-6.77,11.48-16.47,5.92-25.71-6.79-11.28-17.2-16.6-30.25-15.58-15.33,1.2-26.08,10.74-36,21.35-1.25,1.33-2.41,2.74-3.62,4.12,3.56-12.09,6.29-24.17,3.33-36.14C249.75,70.62,244.41,56.88,239.9,43,236.36,53.19,233,63.3,229.33,73.25c-5.31,14.19-5.06,28.3-.17,42.49,0.54,1.56.9,3.18,1.1,3.9-7.82-6.24-15.3-13.44-23.91-18.81C189.93,90.58,170,95,160.55,110.07,154.4,119.85,156.3,129.8,165.85,137Z" transform="translate(-141.9 5.53)"/></g></svg>