<svg id="Layer_1" data-name="Layer 1" xmlns="http://www.w3.org/2000/svg" viewBox="0 0 309.16 127.72"><defs><style>.cls-1{fill:#333;}</style></defs><title>seahawks</title><g id="cYiTCn"><path class="cls-1" d="M907.55,480.1l-23.83-19.19c15-14,30-26.56,51.92-26.33,14.45,0.15,27.12,5.93,40,11.2,7.75,3.16,15.63,5.94,24.2,4.18a21.2,21.2,0,0,0,7.11-3.27c-10,2.23-18.59-1.65-27.33-5.12-9.87-3.92-19.58-8.55-29.79-11.27-19.47-5.18-38-1.85-54.78,9.54-3.86,2.61-7.72,5.24-11.37,8.13-6.46,5.11-13.59,8.5-21.91,8.54-26.62.1-53.23,0-80.56,0l26.37-49.35c6.66,6.71,14.92,7.17,23.3,7.16,43-.07,86-0.41,129-0.05,11.22,0.09,22.51,1.85,33.6,3.79,8.31,1.45,15.32,6.11,21.42,12.12,1.57,1.55,4.28,2.38,6.57,2.69,15.71,2.13,31.11,5.44,45.69,11.85a62.46,62.46,0,0,1,7.53,3.87c13.16,8.07,18.47,20.61,14.33,35.53-5.83,21-19.91,36.31-35.68,50.75a3.74,3.74,0,0,1-.37-1.05c4.85-13.18,1.72-19.05-12.37-20.77-15-1.83-30.13-3.42-45.23-3.71-27.32-.53-54.65,0-82,0-3,0-6-.09-9-0.33-8-.65-10.9-6.23-7-13.3,1.45-2.61,3.2-5.06,4.83-7.57S905.53,483.19,907.55,480.1ZM911.3,504c6.06,0.62,11.27,1.06,15.31-5.5,5-8.18,13.39-12.17,22.91-13.49,19.57-2.71,38.85,0,58,3.54a212.07,212.07,0,0,1,56.33,19c2.49-5.89,5.32-11.35,7.16-17.12,4.9-15.43,0-27.19-14.88-33.39-8.16-3.41-17.13-5-25.84-6.94-6.1-1.35-7.29-2.91-4.49-8.59-9.4,2.39-15.63,8.12-19.89,16.29-1.61,3.09-3.1,6.26-4.91,9.23-4,6.61-9.79,10.18-17.7,10.15q-16.74-.07-33.47.13C931.82,477.49,918,487.06,911.3,504Zm-0.39-47.32c7.08,7.13,14.42,13.51,24,14.1a389.88,389.88,0,0,0,43.82,0c7.94-.41,14.73-4.46,18.67-12.71-5.67-.26-10.77-1.27-14.4,3.93-0.86,1.23-2.69,2-4.23,2.5-12.32,3.73-24.68,3-36.82-.61-5.17-1.55-6.35-5.29-4.17-10.31,1.36-3.13,3-6.14,4.73-9.7C929.77,443.28,920.11,448.5,910.91,456.63Zm23.55,48.06c3.11-.77,7.06-0.61,9.16-2.5a27.55,27.55,0,0,1,17.07-7.2c18.55-1.35,36.89,1,55,4.63,13.9,2.81,27.52,7,40.68,10.36a1.7,1.7,0,0,0-.76-0.61c-31.08-14.43-63.63-22-98-20.12C947.66,489.8,939.11,494,934.46,504.7Z" transform="translate(-781.24 -407.18)"/></g></svg>