<svg id="Layer_1" data-name="Layer 1" xmlns="http://www.w3.org/2000/svg" viewBox="0 0 110.65 83.32"><defs><style>.cls-1{fill:#333;}</style></defs><title>stadium</title><g id="s6Krf9"><path class="cls-1" d="M266.67,423.46c0.58-3.34,1.35-5.6,1.25-7.82a24.56,24.56,0,0,0-1.61-7.76c-1.59-4-4.78-5.26-9.18-5-6.47.41-13,.07-19.48,0.12-5.21,0-10.21,5.8-9.48,11,0.39,2.79,1.09,5.54,1.79,9-10.13-1.08-19.83-2.38-28.22-8.4a5.7,5.7,0,0,1-2.17-2.68c-2.43-8.4-4.72-16.85-7-25.21,36.68,12.22,72.75,12.32,109.39,0-1.61,6.12-3.76,12.47-4.88,19-1.28,7.43-5.62,11.4-12.43,13.24C279,420.5,273.36,421.8,266.67,423.46Z" transform="translate(-191.92 -345.58)"/><path class="cls-1" d="M198.62,361.49c-3.78,1.29-5.52.23-6.15-3.82-0.66-4.28,2.42-3.75,4.53-4.26,3.68-.9,7.46-1.4,12-2.23-0.69,4.17.74,8.28-5.18,9.44-1.19.23-1.75,3.72-2.5,5.47L246,360.64V353.7c-5.6.3-6.27-3.3-6.13-8.12h16.45c-0.08,4.63-.17,8.76-6.81,7.84v7.26L292.65,366a11.26,11.26,0,0,0,.26-1.88c0-1-.11-2-0.2-3.28-6.1-.17-7.09-4.08-6.78-9.69,5,1,9.88,1.34,14.24,3,1.43,0.56,1.53,4.53,2.42,7.55h-7c0.65,2.66.43,6,2,7.48,6.75,6.21,6.57,8.26-2.13,12.25-8.19-6.61-18.2-7.73-28.09-8.87-18.3-2.12-36.57-1.79-54.56,2.56A38,38,0,0,0,201.42,380c-4.22,2.7-6.23-.27-8.3-2.54-2.43-2.66-.8-5.42,1.74-6.56C199.14,369,199.69,366,198.62,361.49Z" transform="translate(-191.92 -345.58)"/><path class="cls-1" d="M201.72,384c11.14-12.19,77-12.78,90.22-1.36-4.22,1.83-8,2.89-12.67,1.59-21.11-5.81-42.31-5.5-63.59-.37C211.65,384.81,207.19,384,201.72,384Z" transform="translate(-191.92 -345.58)"/><path class="cls-1" d="M248,415.43a46.22,46.22,0,0,1,6,.05c2.56,0.34,6.66-1.67,6.56,3.47-0.14,7.72-1.76,9.87-7,9.91-4,0-8,.08-12,0s-6-3.89-5.87-10.16c0.06-4.13,3.09-3.07,5.36-3.22S245.7,415.43,248,415.43Z" transform="translate(-191.92 -345.58)"/><path class="cls-1" d="M276.08,385.92a167.7,167.7,0,0,1-57.46,0A118.05,118.05,0,0,1,276.08,385.92Z" transform="translate(-191.92 -345.58)"/></g></svg>