<svg id="Layer_1" data-name="Layer 1" xmlns="http://www.w3.org/2000/svg" viewBox="0 0 206.59 201.11"><defs><style>.cls-1{fill:#333;}</style></defs><title>steelers</title><g id="z3zpwK"><path class="cls-1" d="M511.92,615.66a102.19,102.19,0,0,1-74.39,99.47c-48.19,13.83-100.1-8.67-122.19-52.94-21.23-42.55-7.67-96.31,31.21-123.79,40.66-28.74,92.32-27,130.4,5.18C499.95,563,511.19,588.48,511.92,615.66ZM407.8,522.87A96.77,96.77,0,0,0,357,537.12c-45.82,27.67-60.22,85.95-32.28,130.39,34.46,54.81,112.57,62,156.68,14.47,30.66-33.06,34-82.13,7.42-118.43C468.85,536.28,441.39,523.3,407.8,522.87Z" transform="translate(-305.33 -518.07)"/><path class="cls-1" d="M409.16,524.7c4.42,25,15.95,41.81,46,44.84-25,5.53-43.13,16.85-45.74,44.54-4-23.89-14.77-40.93-40.64-44.81C392.92,564.78,407.35,551.37,409.16,524.7Z" transform="translate(-305.33 -518.07)"/><path class="cls-1" d="M415,617.53c24.76-3.23,39.74-15.75,43-40.87,5.06,24.12,18.45,38.9,43.78,41.51-22.61,5.54-40,16.23-44,41.39C452.3,634.51,440.42,621.35,415,617.53Z" transform="translate(-305.33 -518.07)"/><path class="cls-1" d="M409.25,620c4.38,26.38,17.31,42.39,43.89,45.22-22.85,5.62-40.17,16.47-43.86,41.95-4.66-23.33-16.45-39.37-41.73-42.33C392.74,660.89,407.29,647.12,409.25,620Z" transform="translate(-305.33 -518.07)"/><path class="cls-1" d="M320.54,611c0.92,1.4,1.73,2.89,2.77,4.19,1.53,1.93,4.15,3.52,4.62,5.64,0.62,2.77.66,7-1,8.59s-6.06,1.75-8.64.81c-1.77-.65-2.48-4.22-3.66-6.48l1.68-1.62,7.78,4.22a56.43,56.43,0,0,0-3.28-5.93c-1.45-2-3.78-3.45-4.71-5.59-2.61-6,.91-10.63,7.27-9.46,1.95,0.36,3.7,2.65,5.12,4.4,0.4,0.49-.67,2.18-1.06,3.32l-5.58-2.26Z" transform="translate(-305.33 -518.07)"/><path class="cls-1" d="M364.06,622.67c-5.35.64-5.35,0.64-5.23,3.38a32.62,32.62,0,0,1,4.24-1.33,3.63,3.63,0,0,1,.87,2.39c-0.58,1.37-1.42,3.09-2.63,3.65-3.88,1.79-7.5-.25-7.91-4.47a57.7,57.7,0,0,1,.14-9.38c0.24-3.73,2.52-5.14,6.08-4.85s4.6,2.66,4.45,5.88C364,619.4,364.06,620.88,364.06,622.67Z" transform="translate(-305.33 -518.07)"/><path class="cls-1" d="M351.31,621.87c-1.93,2.4-6.95-.82-6,4.48a2.5,2.5,0,0,0,1,.17c1.38-.59,2.73-1.25,4.09-1.88,0.31,0.7,1.07,1.64.84,2.05-0.8,1.49-1.64,3.45-3,4.07-4,1.87-7.6-.62-7.77-5.15-0.1-2.66-.08-5.33,0-8,0.08-3.47,1.41-5.67,5.37-5.62s5.34,2.13,5.46,5.63C351.35,619.26,351.31,620.89,351.31,621.87Z" transform="translate(-305.33 -518.07)"/><path class="cls-1" d="M383,622.26c-2.44,1.63-6.85-1-5.9,3.37h6c-0.75,1.67-1.05,4-2.34,4.88-2.72,2-7.54.49-7.86-2.34a50.36,50.36,0,0,1,.11-12.86c0.19-1.29,3.18-3.13,4.76-3a7.15,7.15,0,0,1,5.06,3.46C383.67,617.62,383,620.21,383,622.26Z" transform="translate(-305.33 -518.07)"/><path class="cls-1" d="M394.93,623.73l6.1,2.61,0.56-.51c-1.09-1-2.47-1.91-3.22-3.16-1.33-2.21-3.17-4.7-3-7,0.08-1.32,3.48-3.13,5.58-3.48,3.19-.52,4.14.87,5.21,6.08l-7.07-1.09c2,1.39,3.09,2.26,4.29,3,2.9,1.9,4.19,4.81,2.53,7.65-1,1.68-3.82,3-5.89,3.13C396.45,631.18,394.84,628.65,394.93,623.73Z" transform="translate(-305.33 -518.07)"/><path class="cls-1" d="M335.14,607.64c2.19,4.51,5.86,6.91,1.76,11-1.06,1.05.75,5,1.28,7.67,0.27,1.34.64,2.66,1,4-6.47,1.19-7.26.46-7.46-5.37-0.11-3.08-1.36-6.24-.9-9.18C331.19,613.21,333.28,610.94,335.14,607.64Z" transform="translate(-305.33 -518.07)"/><path class="cls-1" d="M371,606.57c0,7.26.09,14.52-.12,21.78,0,0.89-1.68,1.74-2.57,2.6-0.78-.83-2.21-1.64-2.23-2.49-0.18-6.78-.25-13.58.08-20.35,0-1,2.31-1.91,3.55-2.86Z" transform="translate(-305.33 -518.07)"/><path class="cls-1" d="M385.46,630.37c0-5.15.06-10.09,0-15,0-2.91,1.44-3.3,3.82-2.7,1.33,0.33,2.69.51,5.35,1-0.91,1.67-2.3,3.46-2.87,5.47a32.45,32.45,0,0,0-1.13,8.09C390.53,630.52,389.35,631.76,385.46,630.37Z" transform="translate(-305.33 -518.07)"/></g></svg>