<svg id="Layer_1" data-name="Layer 1" xmlns="http://www.w3.org/2000/svg" viewBox="0 0 112.96 102.14"><defs><style>.cls-1{fill:#333;}</style></defs><title>texans</title><path class="cls-1" d="M297.84,216.84c-4.11-3.85-8.19-7.07-11.51-11A40.86,40.86,0,0,1,279.55,195c-3.36-8.26-.7-16.17,6.88-20.81,10.34-6.32,21.42-5.78,33.56-3-4.75,1.67-8.73,2.69-12.35,4.43-7.34,3.52-8.79,9.71-2.73,15S317.77,200,324.59,204a78,78,0,0,0,15,6.71c3.8,1.27,5.17,3.54,5.68,7.15,1.46,10.27-.17,20.13-5.37,28.93-4.8,8.13-10.62,15.67-16.28,23.25-0.76,1-3.48,1.55-4.8,1-5.58-2.14-11-4.77-17.4-7.65,5.75-2.53,7-7.09,6-12-0.91-4.48-2-9.34-4.53-13-3.76-5.36-8.89-9.76-14-15.13Zm32.85,25.72-1.21-8,8.64-1.92c-7.89-2.1-12.5-5.72-12.41-14.17l-4.62,6.68-9.76-4,7.11,8.4L315,235.8C323.25,236.15,323.25,236.15,330.69,242.56Z" transform="translate(-278.12 -169.18)"/><path class="cls-1" d="M329.53,268.7C344,253.09,358,237.3,354.31,213.42c3.81-.86,7.42-1.41,10.85-2.51a35.35,35.35,0,0,0,8.57-3.9c4.88-3.2,5.53-7.59,2.27-12.47-0.9-1.35-2-2.59-3.05-4,8,1.46,16.09,9,17.73,16.37,1.5,6.72-1.22,12-6.44,15.6A51.33,51.33,0,0,1,370.86,229c-3.51,1.13-5.17,3.1-7.05,6.06-3.71,5.84-8.3,11.12-12.59,16.57-3.25,4.13-6.19,8.63-10.05,12.1-3,2.7-7.23,4.06-10.9,6Z" transform="translate(-278.12 -169.18)"/></svg>