<svg id="Layer_1" data-name="Layer 1" xmlns="http://www.w3.org/2000/svg" viewBox="0 0 57.38 44.23"><defs><style>.cls-1{fill:#333;}</style></defs><title>timeout</title><g id="eZm2Ck"><path class="cls-1" d="M2117.81,66.82A23.5,23.5,0,0,0,2109,70c-1,.68-1.95,1.46-3,2.09a8.8,8.8,0,0,1-4.83,1.32c-1.49,0-3,.09-4.48,0-1.72-.15-3.42-0.56-5.14-0.71A8.59,8.59,0,0,0,2089,73a1.13,1.13,0,0,0-.3.83c0,1.85,0,3.69,0,5.54,0,2.18.11,4.37,0,6.55a26.75,26.75,0,0,1-.53,3.76c-0.43,2.43-.2,4.6,2,6.25a6,6,0,0,1,1.39,1.92,9.87,9.87,0,0,1,1.44,5.55h-12.8c-0.35-2.18-.71-4.36-1-6.54a38.69,38.69,0,0,1-.56-4.52,3.25,3.25,0,0,1,.79-2c2.09-2.43,3.05-5.45,4.41-8.24a17.63,17.63,0,0,0,1.24-4.54,15.26,15.26,0,0,0,.15-3.46c-0.06-1.21-.68-1.64-2.08-1.5-1.65.16-3.29,0.42-4.93,0.63-2,.25-3.95.57-5.93,0.72a14.73,14.73,0,0,1-2.59-.34,10.62,10.62,0,0,0-1.81-.06c-1.57.1-3.14,0.33-4.72,0.34a5,5,0,0,1-2.19-.62,1.42,1.42,0,0,1-.55-1.16,1.85,1.85,0,0,1,.8-0.91,1.38,1.38,0,0,1,.71-0.2,2.73,2.73,0,0,0,1.91-.79,3.4,3.4,0,0,1,1.78-.5,8.39,8.39,0,0,1,1.82-.1c3.11,0.2,5.89-1.16,8.82-1.82a39.9,39.9,0,0,0,6-1.55c3.57-1.43,7.34-1.82,11.06-2.56,4.83-1,9.66-2,14-4.49h10.47v7.65Z" transform="translate(-2060.43 -59.17)"/></g></svg>