<svg id="Layer_1" data-name="Layer 1" xmlns="http://www.w3.org/2000/svg" viewBox="0 0 200.23 147.64"><defs><style>.cls-1{fill:#333;}</style></defs><title>titans</title><g id="MqFx9t"><path class="cls-1" d="M993,218.36a44.18,44.18,0,0,0,6.55,3,3.9,3.9,0,0,0,3.42-1.17c0.55-.77.46-2.95-0.19-3.48-3.93-3.2-7.84-6.59-12.27-9-4.94-2.66-10.42-4.33-15.66-6.42-14.39-5.74-21.15-17-22.93-31.81-0.26-2.14-.49-4.28-0.69-6,2.94,3.78,5.76,8.09,9.27,11.74a22.52,22.52,0,0,0,16,7.23c1.17,0,2.37-1.18,3.56-1.83-0.78-1.11-1.36-2.93-2.37-3.22-11.95-3.38-17.21-12.75-21.51-23.21-4.21-10.25-12-16.87-22.86-20.68,20.6-6,41.4-.21,53.53,13.19a78.07,78.07,0,0,0,11.4,10.36c4.42,3.27,10.33,3.19,11.88.59,1.39-2.32-1.59-6.87-6.71-9.22-3.86-1.77-8.06-2.82-12.09-4.18,8-6.11,22.58-6.5,31.78-.53,4,2.62,7.51,6.1,11.54,8.72a38.21,38.21,0,0,0,10.56,5.09c1.85,0.5,4.32-1.3,6.52-2.06l-2.85-6c10.78-1.65,21,.94,30.36,7.85a18.73,18.73,0,0,0,7,3.26c27.74,5.94,48.17,31.55,47.32,59.54-0.9,29.52-22.08,54.27-50.72,58-23.88,3.13-43.43-5.15-58-24.66a16.06,16.06,0,0,0-6.38-5c-12.17-5.08-21.18-13-24.9-26.07a18.5,18.5,0,0,1-.53-2.43A10,10,0,0,1,993,218.36Zm21.15-68.68-0.71.64c1.37,3,2.8,5.89,4.09,8.88,2.93,6.8,8.32,10.12,15.41,11.11a17,17,0,0,1,3.93.58c1.27,0.51,3.13,1.44,3.25,2.38s-1.13,2.66-2.2,3.48c-4.62,3.57-9.92,3-15.23-2.11a24.33,24.33,0,0,0-18.53-7.1c-2.83.09-5.66,0.06-8.49,0.12-12.54.27-24.77-.3-33-12.11,3.86,9.59,10.12,16.23,20.29,18.83,6.59,1.68,13.27,3.27,19.55,5.81,9.84,4,15.54,11.71,17.24,22.2,0.3,1.83-.25,3.81-0.41,5.71-4.06-4.24-6.14-9.27-9.82-12.47a32.38,32.38,0,0,0-13.63-6.55c-4.74-1.09-9.92-.24-16.26-0.24,2.73,0.73,4.15,1.14,5.58,1.49,14.23,3.56,22.89,13,27.46,26.49,3.06,9,.22,12.74-9.18,13.09a3.42,3.42,0,0,0-1,.9c4.73,6.78,11.21,11,18.83,13.94a15.61,15.61,0,0,1,6.76,5.19c12.84,18.24,35.16,27.48,56.37,23,25.75-5.39,44.09-27.45,44.24-53.23,0.16-26.8-17.52-48.88-43.6-54.8a31.57,31.57,0,0,1-9.25-4.23c-4.63-2.86-9-6.18-14.85-5.93-0.23,6-2.47,8.81-8.71,9.82-12.35,2-23.48-.52-32.55-9.74C1017.95,153.05,1016,151.4,1014.15,149.67Z" transform="translate(-933.26 -131.19)"/><path class="cls-1" d="M1074.13,171.07c26.31,0.27,47.68,21.75,47.64,47.88a47.9,47.9,0,0,1-48.68,47.73c-26.88-.33-47.4-21.66-47.16-49C1026.14,191.93,1048,170.8,1074.13,171.07ZM1110.61,200h-73.92l6.64,19c2.92-12.59,11.25-9.15,18.62-9.21l11.41,49.71,1-.07,11.45-49.67c7.49-.11,15.51-2.89,18.23,9.19Z" transform="translate(-933.26 -131.19)"/></g></svg>