<svg id="Layer_1" data-name="Layer 1" xmlns="http://www.w3.org/2000/svg" viewBox="0 0 48.42 47.34"><defs><style>.cls-1,.cls-2,.cls-3{fill:#333;}.cls-2{font-size:38.28px;letter-spacing:1.03px;}.cls-2,.cls-3{font-family:Coolvetica;}.cls-3{font-size:38.91px;letter-spacing:1px;}</style></defs><title>turfterms</title><path class="cls-1" d="M327.41,76.17H280V65.8h21.87l-0.12-35.12h3.65V65.8h22V76.17Zm-42-10.37h-2.54v5.5h2.54V65.8Zm5.72,0h-2.54v5.5h2.54v-5.5Zm5.4,0H294v5.5h2.54V65.8Zm5.2,0h-2.54v5.5h2.54v-5.5Zm6.47,0h-2.54v5.5h2.54V65.8Zm5.16,0.08h-2.54v5.5h2.54v-5.5Zm5.12,0h-2.54v5.5h2.54v-5.5ZM324,65.8h-2.54v5.5H324V65.8Z" transform="translate(-279.78 -28.83)"/><text class="cls-2" transform="translate(0 32.36) scale(0.97 1)">5</text><text class="cls-3" transform="translate(27.6 32.37)">0</text></svg>