<svg id="Layer_1" data-name="Layer 1" xmlns="http://www.w3.org/2000/svg" viewBox="0 0 186.22 251.17"><defs><style>.cls-1{fill:#333;}</style></defs><title>vikings</title><g id="_8RrvWK" data-name="8RrvWK"><path class="cls-1" d="M167.65,467.28c0.1-1.61,0-2.18.18-2.51,13.56-20.66,27.61-40.92,48.35-55.28a133.83,133.83,0,0,1,12.33-7.56c2.48-1.35,3.09-3,2.73-5.63a78.93,78.93,0,0,1-.83-11.92c0.05-2.9-1-3.77-3.7-4.65C204.12,372.34,189,357.4,184,334c-1.71-8-.93-16.62-0.29-24.89,0.73-9.37.63-18.28-5.05-26.3-0.23-.32-0.11-0.88.95-2.24,2,2.34,5,4.4,5.73,7.08,2.47,9.08,4.44,18.32,6,27.61,1.83,10.88,4.08,21.35,14.06,28,8.93,6,18.76,7.34,29.13,5.37,1.38-.26,2.55-1.63,4.08-2.67a36.27,36.27,0,0,0-3-2.81c-9.35-6.69-13.46-15.89-14.34-27.23A69.24,69.24,0,0,0,217,296.07c-2-5.19-6.3-9.5-9.91-14.69,2.23,1,4.57,1.63,6.45,2.92,7.19,4.95,10.77,12.44,13.86,20.26,1.83,4.62,3.7,9.26,6,13.68a22.19,22.19,0,0,0,14.76,11.69l2.82-9.09c38.44,0.93,67.87,16.08,84.19,53.6l7.16-5.53c1.52,4.36-.07,8.08-3.08,11.41-2.67,3-2.39,11.4,1.14,12.93,4.19,1.81,4.93,3.88,2.76,7,1.78,2.44,3.41,4.33,4.64,6.45,1.35,2.33,1.2,4.05-1.22,6.36-2,1.88-2.08,5.71-2.6,7.35,3.57,3.1,6.92,5,8.73,7.84,2.48,3.91,1.13,6.39-3.3,7.9-6.29,2.14-12.59,4.28-19,6.09-4.35,1.23-5.94,3.8-7.15,8.18a186.82,186.82,0,0,1-9.68,27c-1.66,3.69-5.76,6.28-9.29,9.93,2.3-6.89,5-12.39,5.81-18.16,0.79-6-.35-12.22-0.68-19.08a42,42,0,0,0-17.11,11.68c-0.54.59-.3,2-0.15,3.06,0.32,2.13,1.1,4.22,1.2,6.34,0.45,9.54,1.57,19.15.8,28.61-0.56,6.9-3.51,13.65-5.75,20.35a39.64,39.64,0,0,1-4.61,9.29c-0.8,1.21-3,1.51-4.5,2.22-0.7-1.55-2-3.11-2-4.64,0.15-7,1.2-14,1-20.92-0.78-22.56-10.4-40.92-28.72-53.9-17.6-12.47-36.74-11.32-55.45-2.5-7.72,3.64-14.54,9.21-21.75,13.94C170.95,464.57,169.73,465.66,167.65,467.28ZM266,381a83.62,83.62,0,0,1,9.09,2.74c3,1.29,5.22.91,7.3-1.69,7-8.69,5.34-21.17-4.18-26.91-4.15-2.5-9.17-4.8-13.86-4.93-10.09-.29-20.23.73-30.33,1.51-13.63,1-26.67,0-35.52-12.06-4-5.5-6.56-12.11-9.22-17.18l1.92,12.09-0.41.17-2-4.51-0.51.18,0.89,6.62-0.66.08L186,329.32a15.49,15.49,0,0,0,.48,5.39,59.3,59.3,0,0,0,13,24.39c6,7,14.1,9.52,22.34,11.77,4.2,1.15,8.72,1.1,13.21,1.61l-2.79,2,0.31,0.42,6.59-2.46,0.34,0.73-3.54,3.37,8.76-3.88,0.44,0.8-4.31,3.78,8.9-3.72,1.17,1.55-4.19,2.41,0.55,0.59,7.22-3.53,1.24,1.58-4.22,2,0.82,1,7.57-4.08,0.52,0.92-3.55,3.36,11.82-1.81Zm-23-34.19c6.82,0,13.64-.35,20.42.08,10.87,0.68,20,4.47,24.8,15.34a4.57,4.57,0,0,0,3.56,2.28c10.47-1.15,20.91-2.6,31.51-4-0.06.41,0,.21,0,0.1-14-25.61-45-36.36-67.9-36.37a3.49,3.49,0,0,0-2.62,1.58C249.53,332.61,246.42,339.5,243.06,346.78Zm-24.44,92.63c7,1.94,10.43-.79,23.4-17.72,1.18,2.23,2.14,4.5,3.48,6.53,3.91,5.9,9.43,9.28,16.55,9.56,1.29,0,3.65-1.11,3.78-2,1.89-12.31,10.57-20,18.67-28.09a161.25,161.25,0,0,0,13.78-15c2.62-3.41,4-7.8,6.1-12.18-7.35-.1-10.53,2.64-13.06,8.31-4.75,10.64-15.55,14.81-26.73,11.21-4-1.3-7.68-1.28-10.85,1.21-5.84,4.58-12,9-16.89,14.47C230.29,423,224.78,431.29,218.63,439.41Zm107.06-55.17c-6.43-2.73-11.62-.28-17.14,3.88l0.56-8.77-1.38-.44L299.63,399c10,5.57,7.33,15.83,8.76,24.61a20.78,20.78,0,0,1-2.15-6.15c-0.9-3.69-1.42-7.55-2.85-11-1.78-4.33-6-5.18-8.8-1.63-2.45,3.12-3.92,7.05-5.57,10.74-0.48,1.08-.07,2.55-0.07,3.87l3.66-.28c0.91,4.15,1.32,8,2.64,11.49s4.62,4.89,8.5,4.79,4-3,4.92-5.66c1.5-4.38,3.53-8.58,5.25-12.89,0.54-1.35,1.41-3,1.1-4.18-1.85-7.32,1-12.54,6.66-16.86,2.77-2.1,2-4.85-1.33-6-1.59-.54-3.13-1.23-4.69-1.85l0.09-1.33Zm-9.21,44.63,2.07,0.63c-0.87,3.31-1.92,6.58-2.56,9.93a84.6,84.6,0,0,0-1.25,10.4c-0.2,3.29,0,6.6-.05,9.89l5.08-21.34,1.58,0.4-3.83,22.37a86.63,86.63,0,0,0,3.55-11.92c4.28-16.16,8.56-32.36,25.82-40.05-3.22-7.22-7.95-9.26-14.49-5.67-11.4,6.24-19.14,15.6-20.64,28.81-0.81,7.09-.14,14.35-0.14,19.63Zm-67-28.19c-19.35,5.51-47,28.45-54.72,45.33,5.26-1.51,10.3-2.54,15-4.44a17.69,17.69,0,0,0,7.67-5.61C226.63,422.84,236.13,410.1,249.51,400.68Zm36.94,10c-9,9-15.34,18.3-18,29.8-1.95,8.53-1.35,9.9,5.86,14.15,3-6.89,6.7-13.61,8.73-20.8C285.05,426.85,285.28,419.34,286.46,410.72Zm4,11.52c-7.22,13.22,1.12,24.27,1.4,35.86,3.91-3.31,7.19-7.09,11.31-9.33,4.8-2.6,5-5.76,3.46-10.43C295.68,439.49,292.06,432.33,290.49,422.25ZM174.54,459c5.78-4.42,11.34-7.71,15.63-12.2s7.48-10.53,11.39-15.69a61.87,61.87,0,0,1,6.84-7.24c13-12.37,28.19-21.39,44.27-28.92C219.25,406.81,195,429.92,174.54,459Zm141.82-49.49,1.72,1a77.52,77.52,0,0,1,5.93-5.19c2.59-1.86,4.68-3.41,4.51-7.35-0.16-3.66,3-4.53,7.27-2.49l-4.31,3.3,0.69,1.4,8.17-2.54c-1.65-4-3.11-7.26-4.35-10.62-0.94-2.53-1.73-5-5.17-3.06-2.34,1.32-4.61,2.75-7,4.18,2.67,5.94,2.07,8.24-2.31,13C319.34,403.49,318,406.69,316.35,409.51Zm-91-96.35c-1.78,8.51,1.36,15.84,6.41,22.41,2.8,3.65,7.6,3.7,10,.72,3.08-3.86.56-5.87-2.34-8.5C234.41,323.31,230.05,318.15,225.33,313.16Zm125.79,119c0-3.66-.62-6.79-5-7-3.89-.18-4.84-2-3.9-5.5a29.27,29.27,0,0,0,.26-4.66c-6.67,5.65-11.27,11.09-13.45,18.79Zm-65.7,9c-2.69,6.09-5.26,11-7,16.17-2.38,6.9-1.83,7.68,4.73,11.27C287.82,460.35,290.19,451.9,285.42,441.14Zm-25.67,12.15c1,7.13,6.59,11,13.81,9.88C274.55,457.24,268.62,452.83,259.75,453.29Zm-9.67-14.4c0.55,6,6.62,10.39,14.8,10.41v-6.38Zm89.8-64c-3.54.81-6.81,1.92-10.16,2.22s-6.94-.24-10.41-0.25c-2.94,0-5.6.6-5.85,3.73,5.5,0,10.89,0,16.27,0C334.28,380.54,338.16,379.26,339.88,374.88ZM281.41,476.79c-0.41-2.39-.1-4.75-1.12-5.73-2.8-2.69-6.11-5-10.67-3.38C270.92,473.48,274.53,476.12,281.41,476.79ZM249,447.28l-4.23-12.84-7.16,7.5ZM288.76,483l1.67-17C283,474.26,282.76,477.45,288.76,483ZM277,478.06c-0.84,6.06,1.79,8.52,5,10.35,0.94,0.53,3.21.3,3.69-.39,0.61-.87.53-3.18-0.18-3.82C283.24,482.09,280.48,480.45,277,478.06Zm2.94,13c-0.35,6.54,1.08,8.46,7.21,9.57C287.08,495.74,284.09,493.44,280,491.08Zm-38.69-62.64L231,440.33C237.52,439.09,242.88,433.22,241.29,428.44Zm48.38,67.29,1.71-9.95C288.93,488.43,285.21,490.81,289.67,495.73Zm-0.88,16.52c-1.26-5.34-3.55-8.25-7.11-10l-1,.91ZM340.16,436L340,434.6l-12.45,2.85,0.42,1.71Zm-51.6,69.44,2.31,0.39,1.31-7.38-1.89-.32Z" transform="translate(-167.65 -280.53)"/></g></svg>